<?xml version="1.0" encoding="utf-8"?>
<!-- Generator: Adobe Illustrator 21.1.0, SVG Export Plug-In . SVG Version: 6.00 Build 0)  -->
<svg version="1.1" id="Слой_1" xmlns="http://www.w3.org/2000/svg" xmlns:xlink="http://www.w3.org/1999/xlink" x="0px" y="0px"
	 viewBox="0 0 2560 1600" style="enable-background:new 0 0 2560 1600;" xml:space="preserve">
<style type="text/css">
	.st0{fill:#FEF3BB;}
	.st1{fill:#CB0300;}
	.st2{fill:none;stroke:#CB0300;stroke-width:7.1401;stroke-miterlimit:10;}
	.st3{fill:#FC2B31;}
	.st4{fill:#BD0005;}
	.st5{opacity:0.8;}
	.st6{fill:#B09F50;}
	.st7{display:none;fill:#E7000D;}
	.st8{fill:#FE5C00;}
	.st9{fill:#87C6C8;}
	.st10{display:none;fill:#FC4742;}
	.st11{opacity:0.8;fill:#FEBDD1;enable-background:new    ;}
</style>
<path class="st0" d="M831,845.1c-113.8-14.6-268.4-46.9-403.6-84.3C309.1,728,148.3,675.7,54,612.6l-1.6-1.1l0.1-1.9
	c0.3-6.1,0.7-12.5,1.3-18.9c5.6-65.6,24.7-147.9,56.7-244.7c27.2-82.3,64.8-178.1,111.8-284.5l1.1-2.6l2.8,0.6
	c124.5,28.2,269.8,62,403.5,98.5c139.8,38,252.4,75,344.3,113.1l2.5,1l-0.5,2.7C934.6,522.5,889.6,703,834.6,843l-1,2.5L831,845.1
	L831,845.1z"/>
<path class="st1" d="M225.4,62.8c279.3,63.3,547.2,128.6,747.3,211.4c-35.8,213.5-79.4,410.1-141.2,567.5
	C624.3,815.2,222,720.9,55.9,609.8c0.3-6.2,0.7-12.4,1.3-18.8C69.2,450.8,140,256.6,225.4,62.8 M221.4,54.9l-2.3,5.2
	c-47,106.6-84.6,202.4-111.9,284.8c-32,97-51.2,179.6-56.8,245.5c-0.6,6.5-1,12.9-1.3,19l-0.2,3.9l3.2,2.2
	c94.7,63.4,255.8,115.8,374.3,148.6c135.4,37.5,290.2,69.8,404.1,84.4l5.3,0.7l2-5c55.1-140.2,100.1-321,141.6-568.9l0.9-5.4l-5-2.1
	c-92-38.1-204.8-75.1-344.8-113.3c-133.7-36.4-279-70.2-403.6-98.5L221.4,54.9L221.4,54.9z"/>
<path class="st2" d="M225.4,62.8c26.2,101.6,64,209.2,110.3,321.4c28.9,69.9,61.1,141.5,96,214.5c93.3-25.2,165.6-77,239.8-118.8
	c108.4-61,208.6-129.8,301.2-205.6"/>
<path class="st2" d="M671.5,479.8c61.1,147,122.4,294.8,160,361.9"/>
<path class="st2" d="M335.8,384.2C249,455.4,155.9,524.2,57.3,591"/>
<path class="st3" d="M488.6,407.2c0.7-30.7-6.7-57-22.5-80.4c-20.1-29.7-27.1-55.6-19.9-73c3-7.1,9.8-16.2,25.9-19.2
	c6.7-1.3,13.2-1.9,19.4-1.9c22.2,0,41,8.3,54.3,23.9c9.9,11.6,16.5,27.1,19.5,45.4c12.5-13.9,30.1-22.1,48.8-22.1
	c20.2,0,39,9.6,51.4,26.3c12.7,17,15.6,36.2,8.2,54c-8.4,20-28.4,34.4-52.4,37.7c-22.1,3-40.2,3.8-56.3,4.4
	c-25.1,1-44.9,1.8-68.3,10.6l-8.3,3.1L488.6,407.2L488.6,407.2z"/>
<path class="st4" d="M491.5,238.6c42.2,0,67.1,31.5,69.5,79.7c11.6-21.3,32.3-32.4,53.1-32.4c17.3,0,34.6,7.7,46.6,23.9
	c27.1,36.3,0.4,76.6-40.2,82.2c-56.1,7.7-86,0.4-125.8,15.4c0.7-31.9-7.2-59.7-23.5-83.9c-28.4-42.1-29.9-76.9,2.1-83
	C479.6,239.2,485.7,238.6,491.5,238.6 M491.5,226.6L491.5,226.6c-6.6,0-13.5,0.7-20.5,2c-18.7,3.5-26.8,14.4-30.3,22.8
	c-8,19.3-0.8,47.3,20.5,78.7c15.1,22.3,22.1,47.5,21.5,76.9l-0.4,17.7l16.6-6.2c22.5-8.5,41.9-9.3,66.4-10.3
	c16.2-0.7,34.5-1.4,56.8-4.5c26-3.6,47.9-19.4,57.1-41.3c3.9-9.4,5.3-19.6,4-29.5c-1.4-10.6-5.7-20.8-12.9-30.4
	c-13.6-18.2-34.1-28.7-56.2-28.7c-12.6,0-25.1,3.4-36.1,9.9c-3.2,1.9-6.2,4-9,6.3C558.7,250.3,530.7,226.6,491.5,226.6L491.5,226.6z
	"/>
<g class="st5">
	<polygon class="st6" points="225.4,62.8 335.8,384.2 57.2,591 291.3,370.1 217.1,81.9 	"/>
	<path class="st6" d="M301,412.3l34.7-28.1l96,214.5c79.5-23.4,159.6-66.6,239.9-118.4l115.6,282.1L664.5,499.1L416.9,640L301,412.3
		L301,412.3z"/>
	<polygon class="st6" points="671.7,480.3 965,280.5 740.4,477.7 803,785.5 	"/>
</g>
<path class="st7" d="M1871.1,785.5l-75.3-142.3C1813,476,1906,262.7,1997.9,242.9c74.2-16,117.7,24.4,101.5,115.5
	c-4.9,27.3-41.7,71-83.2,118.5c77.5-75.1,135.8-109,167.1-49.1c38,72.6-36,107.1-132,143.4c84.8-2.5,151.6,6.7,158.7,76
	c6,58.1-74.7,51.4-161,42.6c67.7,49.8,126.6,98.9,90.2,140.7c-36,24.7-98.2,4.6-163.3-20.1C1940.7,796.9,1915,790,1871.1,785.5
	L1871.1,785.5z"/>
<path d="M1780.8,1363.1l18.5-0.3c74.5,94.8,183.4,167.8,255.6,158.6c28.1-3.6,51-17.7,69.3-33.4c5.3-23.2,14.8-42.7,28.2-59.1
	c-2.7,20.3-6.2,39.2-12,54.5c16.9-3.4,32.9-3.8,47.9-1.1c-12.2,7.3-27.2,12.4-44.5,15.7c19.8,10.5,37.1,20.8,46.2,30.8
	c-16.1-1.5-35.6-10.2-56.2-21.1c-26.1,27.7-64,41.6-110.4,36.2C1945.1,1534.8,1846,1449,1780.8,1363.1L1780.8,1363.1z"/>
<path d="M1804.1,1280.6l18.5-0.3c74.5,94.8,172.3,155.8,244.5,146.7c28.1-3.6,51-17.7,69.3-33.4c5.3-23.2,14.8-42.7,28.2-59.1
	c-2.7,20.3-6.2,39.2-12,54.5c16.9-3.4,32.9-3.8,47.9-1.1c-12.2,7.3-27.2,12.4-44.5,15.7c19.8,10.5,37.1,20.8,46.2,30.8
	c-16.1-1.5-35.6-10.2-56.2-21.1c-26.1,27.7-64,41.6-110.4,36.2C1957.3,1440.4,1869.3,1366.4,1804.1,1280.6L1804.1,1280.6z"/>
<path class="st8" d="M1059.6,428.2c-59.5-14.6-129.1-16.8-203.5-13.3c-3.6,0.2-5.1,4.7-2.3,7c44.5,36,104.3,68.4,174.5,98.4
	L1059.6,428.2L1059.6,428.2z"/>
<path class="st9" d="M1038,423.8c164.8-254.5,396-316.1,585.5-236.3c175.4,74,325.3,259.1,373.2,341.2
	c55.7,95.4,97.9,201.8,181.5,232.8c104.7,38.9,257.8-0.1,322-80.6c3.5-4.4,10.7-2,10.8,3.7c5.8,287.1-249.7,671.8-587.3,687.5
	c-406.3,3.4-782.9-124.4-919.9-481.6C952.2,720.4,965.4,565.2,1038,423.8L1038,423.8z"/>
<path class="st10" d="M1834.6,849.8l5.1-160.9c97.8-136.7,284.4-275.8,374.1-247.4c72.4,22.9,90.1,79.6,30.8,150.7
	c-17.8,21.3-71.4,41-131,61.6c104.5-26.8,172-27.3,169.5,40.2c-3,81.9-84.4,75.1-185.7,59.1c74.9,39.9,128.3,81,100.1,144.7
	c-23.7,53.4-90.3,7.6-160.9-42.8c34.1,76.8,60.9,148.7,8.6,166.9c-43.6,3.6-87.6-44.7-131.8-98.4
	C1889.4,894.3,1870.5,875.5,1834.6,849.8L1834.6,849.8z"/>
<ellipse transform="matrix(0.4766 -0.8791 0.8791 0.4766 185.0554 1342.1519)" class="st11" cx="1219.7" cy="515.7" rx="47.7" ry="77.1"/>
<path d="M1357.5,480.3c-3.7-2.2-9.1-2.9-13.3-3.6c-5.1-0.9-10.3-1.4-15.5-1.8c-1-0.1-2-0.2-3-0.2c-0.5,0-1-0.1-1.5-0.1
	c-1.1-0.1-0.9-0.4-1.3-1.4c-0.9-2.2-1.8-4.4-2.9-6.5c-1-2-2.2-3.9-3.3-5.8c-0.4-0.7-0.9-1.4-1.3-2.2c-1.3-1.8-3.4-3.9-4.2-5.9
	c-0.1-0.2-0.4-0.3-0.4-0.5c-0.1-0.5,0.9-1.1,1.4-1.5c1.8-1.5,3.6-3,5.4-4.5c4.1-3.3,8.3-6.6,12.6-9.7c3.3-2.4,7-5,11-6
	c-5.9-0.3-12.3,2.6-17.7,4.7c-6.6,2.5-13,5.4-19.4,8.3c-1.1,0.5-2.5-1.7-3.4-2.6c-1.2-1.2-2.4-2.4-3.6-3.5c-2.7-2.5-5.5-4.9-8.4-7.1
	c-1.4-1-14.6-9.3-14.5-9.4c4.2-11.1,8.4-22.2,12.6-33.3c0.1-0.2,0.2-0.4,0.2-0.6c-6.9,9.4-13.8,18.7-20.7,28.1
	c-0.4,0.6-0.8,1.1-1.2,1.7c-0.4,0.6-5.4-1.5-6.3-1.8c-7.2-2-14.7-3.1-22.2-3c-1.7,0-3.4,0.1-5.1,0.2c-0.2-1.5-0.3-3.1-0.5-4.6
	c-0.3-3.8-0.6-7.6-0.6-11.5c-0.1-5.1-0.7-13,2.8-17.2c-2.8,1.9-4.3,5.6-5.5,8.6c-1.8,4.6-3,9.4-4.1,14.2c-0.5,2.3-1,4.6-1.5,6.9
	c-0.2,1-0.4,2-0.6,3.1c-0.3,1.7-0.3,1.7-2.1,2.2c-4.7,1.1-9.3,2.5-13.8,4.4c-14.6,5.9-27.1,15.4-38,26.7
	c23.8-13.1,50-23.8,77.6-17.8c14.1,3.1,26.9,10.6,37.7,20.1c7.7,6.8,15.1,14.7,20.5,23.5c9.4,15.6,13.6,34,12.1,52.2
	c-0.9,10.5-3.2,20.4-6.3,30.4c-2.7,8.6-7,16.6-11,24.6c9.1-9.4,17.2-19.8,22.4-31.9c1.4-3.2,2.6-6.3,3.7-9.6
	c3.1-0.7,6.3-1.2,9.4-1.6c6.5-0.8,13.1-1.2,19.6,0c-7.8-5-17-7.6-26-9.5c2.8-12.6,2.8-26.2-0.1-38.8c-0.1-0.6-0.3-1.1-0.4-1.7
	c-0.2-1.2,0.3-0.9,1.3-1.1c1.6-0.4,3.3-0.7,4.9-1.1c3.3-0.7,6.7-1.3,10-1.7c5.4-0.8,10.8-1.3,16.2-0.3
	C1358.5,480.9,1358,480.6,1357.5,480.3C1357,480,1358.5,480.9,1357.5,480.3L1357.5,480.3z"/>
</svg>
