<?xml version="1.0" encoding="utf-8"?>
<!-- Generator: Adobe Illustrator 21.1.0, SVG Export Plug-In . SVG Version: 6.00 Build 0)  -->
<svg version="1.1" id="Слой_1" xmlns="http://www.w3.org/2000/svg" xmlns:xlink="http://www.w3.org/1999/xlink" x="0px" y="0px"
	 viewBox="0 0 4602.7 1655.9" style="enable-background:new 0 0 4602.7 1655.9;" xml:space="preserve">
<style type="text/css">
	.st0{display:none;}
	.st1{display:none;fill:#D7ACE0;}
	.st2{display:none;fill:#FFFFFF;}
	.st3{display:none;fill:#FEC417;}
	.st4{fill:#F784AF;}
	.st5{display:none;fill:#692CBD;}
	.st6{display:none;fill:#D28AFF;}
	.st7{display:none;fill:#FBC2E2;}
	.st8{display:none;fill:#F784AF;}
	.st9{display:none;fill:#FFE363;}
	.st10{display:none;fill:#EC869A;}
	.st11{display:none;fill:#FCE9DC;}
	.st12{display:none;fill:#51EEFF;}
	.st13{display:none;fill:#FCF057;}
</style>
<path class="st0" d="M4083.3,1614.6c-0.3,0.8-0.6,1.7,0.1-0.3c0.2-0.5,0.1-0.4,0.1-0.1c2.5-7.6,5.9-14.9,9.7-22l7.3-209.8l16.7,0.6
	l-7.3,211.3c1.5,3.2,3.2,9.8,3.8,11.5c2.2,6.7,3,14.2,0.9,21c-4.9-3.7-8.4-9.1-10.7-14.7c-1.2,4.8-2.5,9.7-4.6,14.2
	c-1.9-6-2.5-12.5-2.9-18.8c-4.5,6.3-9.6,12.4-15.6,17.4C4081.2,1621.4,4082.2,1618,4083.3,1614.6L4083.3,1614.6z"/>
<path class="st0" d="M3981.6,1597.4c-0.3,0.8-0.6,1.8,0.1-0.3c0.2-0.5,0.1-0.4,0.1-0.2c2.6-8,5.9-15.7,9.7-23.2l7.7-221.5l16.7,0.6
	l-7.7,223.1c1.5,3.4,3.2,10.4,3.8,12.2c2.2,7,3,15,0.9,22.2c-4.9-3.9-8.4-9.6-10.7-15.5c-1.2,5.1-2.5,10.3-4.6,15
	c-1.9-6.4-2.5-13.2-2.9-19.8c-4.6,6.6-9.6,13.1-15.6,18.4C3979.5,1604.6,3980.5,1601,3981.6,1597.4L3981.6,1597.4z"/>
<path class="st1" d="M4647.5,756.2c-0.4-3.1-4.6-3.8-6-1c-34.4,66.1-85.1,98.9-147.3,108.4c-59.7,6.7-104-51.2-155.6-122.5
	c-129.9-179.3-295.1-266.1-409.3-215c-150.1,67.2-212,225.2-208.9,397.8c3.5,198.8,111,375.9,284,435.3
	c205.3,70.5,429.4,48,539.3-114.3C4648.2,1090.6,4670.2,922,4647.5,756.2L4647.5,756.2z"/>
<path class="st2" d="M4429.6,988.5c-1.1-1.8,0.2-4.2,2.3-4.1c51.6,0.5,71.5-28.3,45.3-76.3c-42.2-77.5-175.3-102.8-227-78.3
	c-3.2,1.5-5.8,4.1-7.4,7.3c-29.3,59.8,18.3,285.7,101.6,311c53.3,16.2,69.4-22.6,41.5-69.8c-1.1-1.8,0.2-4.1,2.3-4.1
	C4456.6,1073.5,4461.9,1040.6,4429.6,988.5L4429.6,988.5z"/>
<path class="st3" d="M3787.4,703.3l-102.8-8.6c-1.8-0.2-2.9,2.1-1.5,3.4l74.6,71.8c1,0.9,2.6,0.6,3.1-0.6l28.2-63.2
	C3789.6,704.8,3788.7,703.4,3787.4,703.3L3787.4,703.3z"/>
<path class="st4" d="M4219,1156.1c-38.3-161.7,83.4-320.2,220.3-527.6c154.7-234.3,45.5-380.5-214.6-422
	c-146.7-23-207.8,56.5-276,244.4c-137.5-278.7-384.4-277.7-502.1-103.8C3330,519.2,3506.1,758.3,3689,860.1
	C3830.6,939.6,4023.2,1032,4219,1156.1L4219,1156.1z"/>
<path class="st0" d="M3908,720.1c-14.7,8-29.9,16.3-39.8,30.4c-4.2,6-7.3,12.7-8.9,19.9c-2.1,9.5-2.1,19.2-0.8,28.8
	c0.5,3.7,1.2,7.4,2,11c-0.1-0.3-0.2-0.7-0.3-1c4.6,12,10.7,24.7,23.1,30.2c6.6,3.1,14.8,2.8,21.9,1.5c9.7-1.8,18.9-5.5,27.9-9.5
	c3.3-1.4,6.4-3,9.7-4.5c-7,7.2-14.8,13.5-23.4,18.6c-6.7,4-14.5,7.3-22.3,8.3c-7.7,0.9-15,0.3-22.3-2.6c-5.8-2.3-11.3-6.4-15.4-11.1
	c-7.4-8.5-13.3-18.9-15.7-30c-4-18.8-2.9-39.9,7.1-56.6C3862.7,733.5,3885.3,722.8,3908,720.1C3906.9,720.8,3905.4,720.4,3908,720.1
	L3908,720.1z"/>
<ellipse transform="matrix(0.943 -0.3328 0.3328 0.943 -76.0222 1322.9684)" class="st2" cx="3824" cy="883.4" rx="31" ry="53.5"/>
<path class="st5" d="M4240,608.1c-27,0-91.8-16.5-165.1-42.1c-77.2-26.9-141.8-55.9-172.7-77.6c-1.1-0.7-1.7-2-1.7-3.3
	s0.6-2.5,1.7-3.3c2-1.4,5.2-2.1,9.9-2.1c21.3,0,71.5,13.2,103.2,25.1c1.8,0.7,2.8,2.5,2.5,4.3l-1,7l124.4,45.8l1.7-8
	c0.3-1.2,1-2.2,2.1-2.7c0.6-0.3,1.2-0.4,1.8-0.4s1.1,0.1,1.7,0.4c35.3,16.2,74,34.7,93.9,49.7c1.4,1,1.9,2.8,1.4,4.4
	C4243.2,607,4241.7,608.1,4240,608.1L4240,608.1z"/>
<path class="st6" d="M3912.2,483.8c19.8,0,69.3,12.7,101.8,24.8l-1.5,10.2l131.8,48.5l2.7-12.5c39.6,18.2,74.8,35.4,93.1,49.2
	c-56.4,0-268.5-71.9-335.5-118.9C3905.9,484.2,3908.6,483.8,3912.2,483.8 M3912.2,475.9v8V475.9L3912.2,475.9
	c-5.7,0-9.4,0.9-12.2,2.8c-2.1,1.5-3.4,3.9-3.4,6.5s1.3,5,3.4,6.5c31.2,21.8,96.1,51,173.7,78.1c58.6,20.4,133.2,42.3,166.4,42.3
	c3.4,0,6.5-2.2,7.5-5.4c1.1-3.2,0-6.8-2.8-8.9c-20.1-15.1-59.1-33.8-94.6-50.1c-1.1-0.5-2.2-0.7-3.3-0.7c-1.2,0-2.4,0.3-3.6,0.8
	c-2.2,1.1-3.7,3.1-4.2,5.5l-0.7,3.5l-117.1-43.1l0.6-3.8c0.5-3.7-1.6-7.3-5.1-8.6C3984.7,489.2,3933.9,475.9,3912.2,475.9
	L3912.2,475.9z"/>
<path class="st5" d="M4137,553.9c-0.5,0-0.9-0.1-1.4-0.3L4024.7,512c-1.7-0.6-2.8-2.4-2.6-4.2l39.4-342.3c0.1-1.2,0.8-2.3,1.9-3
	c0.6-0.4,1.3-0.6,2-0.6c0.5,0,1,0.1,1.5,0.3l192.3,75.4c2,0.8,3.1,3.1,2.3,5.2l-120.8,308.6C4140.1,553,4138.6,553.9,4137,553.9
	L4137,553.9z"/>
<path class="st6" d="M4065.5,166l192.3,75.4L4137,550l-110.9-41.7L4065.5,166 M4065.5,158c-1.4,0-2.8,0.4-4.1,1.1
	c-2.1,1.3-3.5,3.5-3.8,5.9l-39.4,342.3c-0.4,3.6,1.7,7.1,5.1,8.4l110.9,41.7c0.9,0.3,1.9,0.5,2.8,0.5c3.2,0,6.2-1.9,7.4-5.1
	l120.8-308.6c1.6-4.1-0.4-8.7-4.5-10.3l-192.3-75.4C4067.5,158.2,4066.5,158,4065.5,158L4065.5,158z"/>
<path class="st4" d="M1542.2,997c123.7-231.9,325.8-247.8,425.7-93.6c114.1,175.6-44.9,389.6-290.2,497.4
	c-94.6,41.6-219.1,115.6-348.2,214.1c28.6-123-33.8-250.9-145.9-381.6c-145.3-162.4-159.4-306.6-0.1-397.6
	C1338.3,747.5,1482.6,827,1542.2,997L1542.2,997z"/>
<path class="st0" d="M3104.6,1616.8c0.2,0.8,0.5,1.7-0.1-0.3c-0.1-0.5-0.1-0.4,0-0.2c-2.3-7.7-5.4-15.1-8.9-22.3v-209.9h-16.7v211.4
	c-1.6,3.2-3.6,9.7-4.2,11.4c-2.4,6.6-3.5,14.1-1.7,21c5.1-3.5,8.8-8.8,11.2-14.3c1,4.8,2.1,9.8,4.1,14.3c2.1-6,2.9-12.4,3.6-18.7
	c4.3,6.4,9.2,12.7,15,17.9C3106.4,1623.7,3105.6,1620.2,3104.6,1616.8L3104.6,1616.8z"/>
<path class="st0" d="M3206.8,1603.1c0.2,0.8,0.5,1.8-0.1-0.3c-0.1-0.5-0.1-0.4,0-0.2c-2.3-8.1-5.4-15.9-8.9-23.5v-221.6h-16.7v223.2
	c-1.6,3.3-3.6,10.3-4.2,12c-2.4,7-3.5,14.9-1.7,22.2c5.1-3.7,8.8-9.3,11.2-15.1c1,5.1,2.1,10.3,4.1,15.1c2.1-6.3,2.9-13.1,3.6-19.7
	c4.3,6.8,9.2,13.5,15,18.9C3208.7,1610.4,3207.8,1606.7,3206.8,1603.1L3206.8,1603.1z"/>
<path class="st7" d="M2570.5,739.3c0.5-3.1,4.7-3.6,6-0.8c32.1,67.2,81.6,101.8,143.4,113.4c59.5,8.7,105.7-47.5,159.8-117
	c136.1-174.7,304.1-255.7,416.5-200.7c147.7,72.3,204,232.4,195,404.8c-10.4,198.6-124,371.8-298.9,425.2
	c-207.6,63.3-430.8,33-535-132.9C2558.2,1073.5,2542,904.3,2570.5,739.3L2570.5,739.3z"/>
<path class="st8" d="M2780.2,979.1c1.2-1.8-0.1-4.2-2.2-4.2c-51.6-1.3-70.5-30.7-42.7-77.8c44.9-76,178.8-96.6,229.6-70.4
	c3.2,1.6,5.7,4.3,7.1,7.6c27.2,60.7-28.2,284.9-112.3,307.3c-53.8,14.4-68.6-24.9-39-71.2c1.1-1.8-0.1-4.1-2.2-4.2
	C2750.3,1063.1,2746.1,1030.1,2780.2,979.1L2780.2,979.1z"/>
<path class="st0" d="M3338.7,844c1-2.9,1.8-6,2.4-9c0.2-1,0-4.7,1.2-4.6c2.6,0.1,5.3,0.2,7.9,0.4c5.3,0.2,10.6,0.5,15.8,0.7
	c-4.8-1.2-9.6-2.4-14.4-3.6c-2.7-0.7-5.5-1.4-8.2-2c-0.2-0.1-1.1-0.1-1.2-0.3c0.2-3.6,0-7.3-0.3-10.9c-0.3-3.2-0.8-6.5-1.5-9.6
	c-0.2-0.8-1.6-4.5-0.9-5.1c1.9-1.5,3.8-2.9,5.8-4.4c4.2-3.2,8.3-6.3,12.5-9.5c-6.6,3.2-13.3,6.3-19.9,9.5c-2.2-6.6-5-12.9-8.4-18.9
	c-1.7-2.9-3.5-5.8-5.4-8.6c-0.6-0.9-3.8-4.2-3.1-5c3.8-4,7.7-8,11.5-12c-4.9,2.8-9.8,5.6-14.8,8.4c-0.3,0.2-5.8-6.3-6.5-6.9
	c-2.7-2.7-5.5-5.2-8.3-7.6c-4.7-4-9.9-7.4-15.2-10.6c24.4,23.1,46,53.7,45.6,88.8c-0.2,17.2-7.2,34.4-22.6,43.3
	c-14.4,8.3-31.4,8.1-47.4,6.5c9.3,3,18.8,5,28.6,4.7c2.6-0.1,5.2-0.3,7.8-0.7c0.7-0.1,5.2-1.4,5.6-1c1,1.2,2,2.4,3,3.5
	c6.2,7.3,12.4,14.7,18.6,22c-5.4-9.1-10.8-18.3-16.2-27.4c3.7-1.4,7.1-3.3,10.3-5.5c0.9-0.6,7.4-6.5,7.5-6.4c2.5,1.6,5,3.2,7.5,4.8
	c6,3.8,12,7.6,18,11.5c-4.7-4.3-9.4-8.6-14.2-12.9c-2.4-2.2-4.9-4.4-7.3-6.7c-1.4-1.3,0.1-1.9,1.1-3.5
	C3335.5,851.7,3337.3,847.9,3338.7,844C3340.2,839.6,3336.9,849.1,3338.7,844L3338.7,844z"/>
<path class="st3" d="M3431.9,716.3l103-5c1.8-0.1,2.8,2.2,1.4,3.4l-77,69.1c-1,0.9-2.6,0.5-3.1-0.7l-26-64.1
	C3429.7,717.8,3430.5,716.4,3431.9,716.3L3431.9,716.3z"/>
<path class="st4" d="M393.4,828c35.8-89.2-19.9-190.1-80.1-320.7c-68-147.3,6.9-221.7,159.1-222.7c85.9-0.8,113.9,50.4,136.7,163.8
	C712.1,300.9,852.8,323,905.2,432.5C957,541,835.5,662.6,721.9,705.3C634.3,738.1,515.9,773.9,393.4,828L393.4,828z"/>
<ellipse transform="matrix(5.329772e-02 -0.9986 0.9986 5.329772e-02 2315.7961 4235.6743)" class="st2" cx="3391.8" cy="896.5" rx="53.5" ry="31"/>
<path class="st9" d="M3115.5,732.6c-16.3,0-29.6-20.3-29.6-45.3s13.3-45.3,29.6-45.3c16.3,0,29.6,20.3,29.6,45.3
	S3131.8,732.6,3115.5,732.6z"/>
<path class="st10" d="M3115.5,643.8c15.3,0,27.7,19.5,27.7,43.5s-12.4,43.5-27.7,43.5c-15.3,0-27.8-19.5-27.8-43.5
	S3100.1,643.8,3115.5,643.8 M3115.5,640.2c-8.7,0-16.8,5.1-22.7,14.4c-5.6,8.8-8.7,20.4-8.7,32.7s3.1,23.9,8.7,32.7
	c5.9,9.3,14,14.4,22.7,14.4c8.7,0,16.8-5.1,22.7-14.4c5.6-8.8,8.7-20.4,8.7-32.7s-3.1-23.9-8.7-32.7
	C3132.2,645.3,3124.2,640.2,3115.5,640.2z"/>
<path class="st9" d="M3072,673.4c-25,0-45.3-13.3-45.3-29.6s20.3-29.6,45.3-29.6s45.3,13.3,45.3,29.6S3097,673.4,3072,673.4z"/>
<path class="st10" d="M3072,616.1c24,0,43.5,12.4,43.5,27.7s-19.5,27.7-43.5,27.7s-43.5-12.4-43.5-27.7S3048,616.1,3072,616.1
	 M3072,612.4c-12.3,0-23.9,3.1-32.7,8.7c-9.3,5.9-14.4,14-14.4,22.7s5.1,16.8,14.4,22.7c8.8,5.6,20.4,8.7,32.7,8.7
	c12.3,0,23.9-3.1,32.7-8.7c9.3-5.9,14.4-14,14.4-22.7s-5.1-16.8-14.4-22.7C3095.9,615.5,3084.3,612.4,3072,612.4z"/>
<path class="st9" d="M3115.5,645.7c-16.3,0-29.6-20.3-29.6-45.3s13.3-45.3,29.6-45.3c16.3,0,29.6,20.3,29.6,45.3
	S3131.8,645.7,3115.5,645.7z"/>
<path class="st10" d="M3115.5,556.9c15.3,0,27.7,19.5,27.7,43.5s-12.4,43.5-27.7,43.5c-15.3,0-27.8-19.5-27.8-43.5
	S3100.1,556.9,3115.5,556.9 M3115.5,553.2c-8.7,0-16.8,5.1-22.7,14.4c-5.6,8.8-8.7,20.4-8.7,32.7s3.1,23.9,8.7,32.7
	c5.9,9.3,14,14.4,22.7,14.4c8.7,0,16.8-5.1,22.7-14.4c5.6-8.8,8.7-20.4,8.7-32.7s-3.1-23.9-8.7-32.7
	C3132.2,558.4,3124.2,553.2,3115.5,553.2z"/>
<path class="st9" d="M3158.9,673.4c-25,0-45.3-13.3-45.3-29.6s20.3-29.6,45.3-29.6s45.3,13.3,45.3,29.6S3183.9,673.4,3158.9,673.4z"
	/>
<path class="st10" d="M3158.9,616.1c24,0,43.5,12.4,43.5,27.7s-19.5,27.7-43.5,27.7s-43.5-12.4-43.5-27.7S3134.9,616.1,3158.9,616.1
	 M3158.9,612.4c-12.3,0-23.9,3.1-32.7,8.7c-9.3,5.9-14.4,14-14.4,22.7s5.1,16.8,14.4,22.7c8.8,5.6,20.4,8.7,32.7,8.7
	s23.9-3.1,32.7-8.7c9.3-5.9,14.4-14,14.4-22.7s-5.1-16.8-14.4-22.7C3182.8,615.5,3171.2,612.4,3158.9,612.4z"/>
<path class="st9" d="M3115.5,675.9c-17.7,0-32-14.4-32-32s14.4-32,32-32c17.6,0,32,14.4,32,32S3133.1,675.9,3115.5,675.9z"/>
<path class="st10" d="M3115.5,613.7c16.7,0,30.2,13.5,30.2,30.2s-13.5,30.2-30.2,30.2c-16.7,0-30.2-13.5-30.2-30.2
	S3098.8,613.7,3115.5,613.7 M3115.5,610c-18.7,0-33.9,15.2-33.9,33.9s15.2,33.9,33.9,33.9c18.7,0,33.9-15.2,33.9-33.9
	S3134.1,610,3115.5,610z"/>
<path class="st9" d="M3150.1,695.7c-8.9,0-19.1-4.9-27.3-13.1c-6.3-6.3-10.7-13.9-12.4-21.3c-1.7-7.6-0.3-14.2,4-18.5
	c3.1-3.1,7.4-4.7,12.5-4.7c8.9,0,19.1,4.9,27.3,13.1c13.3,13.3,17,31.1,8.3,39.8C3159.5,694.1,3155.2,695.7,3150.1,695.7
	L3150.1,695.7L3150.1,695.7z"/>
<path class="st10" d="M3127,639.5c8.2,0,18.1,4.5,26.3,12.7c12.7,12.7,16.5,29.7,8.3,37.8c-2.9,2.9-7,4.3-11.5,4.3
	c-8.2,0-18.1-4.5-26.3-12.7c-12.7-12.7-16.5-29.7-8.3-37.8C3118.4,640.9,3122.4,639.5,3127,639.5 M3127,636.8
	c-5.5,0-10.1,1.8-13.5,5.1c-4.6,4.6-6.2,11.6-4.4,19.7c1.7,7.7,6.2,15.5,12.8,22c8.4,8.4,19,13.5,28.2,13.5c5.5,0,10.1-1.8,13.5-5.1
	c4.6-4.6,6.2-11.6,4.4-19.7c-1.7-7.7-6.2-15.5-12.8-22C3146.8,641.8,3136.2,636.8,3127,636.8z"/>
<path class="st9" d="M3080.8,695.7c-5.1,0-9.4-1.6-12.5-4.7c-8.7-8.7-4.9-26.5,8.3-39.8c8.2-8.2,18.4-13.1,27.3-13.1
	c5.1,0,9.4,1.6,12.5,4.7c8.7,8.7,4.9,26.5-8.3,39.8C3099.9,690.8,3089.7,695.7,3080.8,695.7L3080.8,695.7L3080.8,695.7z"/>
<path class="st10" d="M3103.9,639.5c4.6,0,8.6,1.4,11.5,4.3c8.1,8.1,4.4,25.1-8.3,37.8c-8.2,8.2-18.1,12.7-26.3,12.7
	c-4.6,0-8.6-1.4-11.5-4.3c-8.1-8.1-4.4-25.1,8.3-37.8C3085.8,644,3095.7,639.5,3103.9,639.5 M3103.9,636.8c-9.3,0-19.8,5-28.2,13.5
	c-6.5,6.5-11.1,14.3-12.8,22c-1.8,8.1-0.2,15.1,4.4,19.7c3.3,3.3,8,5.1,13.5,5.1c9.3,0,19.8-5,28.2-13.5c6.5-6.5,11.1-14.3,12.8-22
	c1.8-8.1,0.2-15.1-4.4-19.7C3114.1,638.5,3109.4,636.8,3103.9,636.8L3103.9,636.8z"/>
<path class="st9" d="M3103.9,649.5c-8.9,0-19.1-4.9-27.3-13.1c-6.3-6.3-10.7-13.9-12.4-21.3c-1.7-7.6-0.3-14.2,4-18.5
	c3.1-3.1,7.4-4.7,12.5-4.7c8.9,0,19.1,4.9,27.3,13.1c13.3,13.3,17,31.1,8.3,39.8C3113.3,647.9,3109,649.5,3103.9,649.5L3103.9,649.5
	L3103.9,649.5z"/>
<path class="st10" d="M3080.8,593.4c8.2,0,18.1,4.5,26.3,12.7c12.7,12.7,16.5,29.7,8.3,37.8c-2.9,2.9-7,4.3-11.5,4.3
	c-8.2,0-18.1-4.5-26.3-12.7c-12.7-12.7-16.5-29.7-8.3-37.8C3072.2,594.8,3076.2,593.4,3080.8,593.4 M3080.8,590.6
	c-5.5,0-10.1,1.8-13.5,5.1c-4.6,4.6-6.2,11.6-4.4,19.7c1.7,7.7,6.2,15.5,12.8,22c8.4,8.4,19,13.5,28.2,13.5c5.5,0,10.1-1.8,13.5-5.1
	c4.6-4.6,6.2-11.6,4.4-19.7c-1.7-7.7-6.2-15.5-12.8-22C3100.6,595.6,3090.1,590.6,3080.8,590.6z"/>
<path class="st9" d="M3127,649.5c-5.1,0-9.4-1.6-12.5-4.7c-4.3-4.3-5.7-10.8-4-18.5c1.6-7.4,6-15,12.4-21.3
	c8.2-8.2,18.4-13.1,27.3-13.1c5.1,0,9.4,1.6,12.5,4.7c4.3,4.3,5.7,10.8,4,18.5c-1.6,7.4-6,15-12.4,21.3
	C3146.1,644.7,3135.9,649.5,3127,649.5L3127,649.5L3127,649.5z"/>
<path class="st10" d="M3150.1,593.4c4.6,0,8.6,1.4,11.5,4.3c8.1,8.1,4.4,25.1-8.3,37.8c-8.2,8.2-18.1,12.7-26.3,12.7
	c-4.6,0-8.6-1.4-11.5-4.3c-8.1-8.1-4.4-25.1,8.3-37.8C3132,597.9,3141.9,593.4,3150.1,593.4 M3150.1,590.6c-9.3,0-19.8,5-28.2,13.5
	c-6.5,6.5-11.1,14.3-12.8,22c-1.8,8.1-0.2,15.1,4.4,19.7c3.3,3.3,8,5.1,13.5,5.1c9.3,0,19.8-5,28.2-13.5c6.5-6.5,11.1-14.3,12.8-22
	c1.8-8.1,0.2-15.1-4.4-19.7C3160.2,592.4,3155.6,590.6,3150.1,590.6L3150.1,590.6z"/>
<path class="st9" d="M3115.5,667.9c-6.4,0-12.5-2.5-17-7.1c-4.5-4.5-7.1-10.6-7.1-17s2.5-12.5,7.1-17c4.5-4.5,10.6-7.1,17-7.1
	c6.4,0,12.5,2.5,17,7.1c4.5,4.5,7.1,10.6,7.1,17s-2.5,12.5-7.1,17C3127.9,665.4,3121.9,667.9,3115.5,667.9z"/>
<path class="st10" d="M3115.5,621.2c5.8,0,11.6,2.2,16,6.6c8.9,8.9,8.9,23.2,0,32.1c-4.4,4.4-10.2,6.6-16,6.6
	c-5.8,0-11.6-2.2-16-6.6c-8.9-8.9-8.9-23.2,0-32.1C3103.8,623.4,3109.6,621.2,3115.5,621.2 M3115.5,618.4c-6.8,0-13.2,2.6-18,7.5
	c-9.9,9.9-9.9,26.1,0,36c4.8,4.8,11.2,7.5,18,7.5c6.8,0,13.2-2.6,18-7.5c9.9-9.9,9.9-26.1,0-36
	C3128.6,621,3122.3,618.4,3115.5,618.4z"/>
<path class="st9" d="M3134,656.5c-10.7,0-19.4-5.7-19.4-12.7s8.7-12.7,19.4-12.7c10.7,0,19.4,5.7,19.4,12.7S3144.7,656.5,3134,656.5
	z"/>
<path class="st10" d="M3134,632c10.3,0,18.6,5.3,18.6,11.9c0,6.6-8.3,11.9-18.6,11.9c-10.3,0-18.6-5.3-18.6-11.9
	S3123.8,632,3134,632 M3134,630.4c-11.3,0-20.2,5.9-20.2,13.5s8.9,13.5,20.2,13.5c11.3,0,20.2-5.9,20.2-13.5
	S3145.4,630.4,3134,630.4z"/>
<path class="st9" d="M3115.5,681.8c-7,0-12.7-8.7-12.7-19.4s5.7-19.4,12.7-19.4s12.7,8.7,12.7,19.4S3122.4,681.8,3115.5,681.8z"/>
<path class="st10" d="M3115.5,643.8c6.6,0,11.9,8.3,11.9,18.6s-5.3,18.6-11.9,18.6c-6.6,0-11.9-8.3-11.9-18.6
	S3108.9,643.8,3115.5,643.8 M3115.5,642.3c-7.5,0-13.5,8.9-13.5,20.2s5.9,20.2,13.5,20.2c7.6,0,13.5-8.9,13.5-20.2
	S3123,642.3,3115.5,642.3z"/>
<path class="st9" d="M3096.9,656.5c-10.7,0-19.4-5.7-19.4-12.7s8.7-12.7,19.4-12.7s19.4,5.7,19.4,12.7S3107.5,656.5,3096.9,656.5z"
	/>
<path class="st10" d="M3096.9,632c10.3,0,18.6,5.3,18.6,11.9c0,6.6-8.3,11.9-18.6,11.9s-18.6-5.3-18.6-11.9S3086.6,632,3096.9,632
	 M3096.9,630.4c-11.3,0-20.2,5.9-20.2,13.5s8.9,13.5,20.2,13.5s20.2-5.9,20.2-13.5S3108.2,630.4,3096.9,630.4z"/>
<path class="st9" d="M3115.5,644.6c-7,0-12.7-8.7-12.7-19.4s5.7-19.4,12.7-19.4s12.7,8.7,12.7,19.4
	C3128.1,635.9,3122.4,644.6,3115.5,644.6z"/>
<path class="st10" d="M3115.5,606.7c6.6,0,11.9,8.3,11.9,18.6s-5.3,18.6-11.9,18.6c-6.6,0-11.9-8.3-11.9-18.6
	S3108.9,606.7,3115.5,606.7 M3115.5,605.1c-7.5,0-13.5,8.9-13.5,20.2s5.9,20.2,13.5,20.2c7.6,0,13.5-8.9,13.5-20.2
	C3128.9,613.9,3123,605.1,3115.5,605.1z"/>
<path class="st9" d="M3115.5,657.6c-7.6,0-13.7-6.2-13.7-13.7s6.2-13.7,13.7-13.7s13.7,6.2,13.7,13.7S3123,657.6,3115.5,657.6z"/>
<path class="st10" d="M3115.5,630.9c7.1,0,12.9,5.8,12.9,12.9c0,7.1-5.8,12.9-12.9,12.9c-7.1,0-12.9-5.8-12.9-12.9
	C3102.5,636.7,3108.3,630.9,3115.5,630.9 M3115.5,629.3c-8,0-14.5,6.5-14.5,14.5s6.5,14.5,14.5,14.5s14.5-6.5,14.5-14.5
	S3123.4,629.3,3115.5,629.3z"/>
<path class="st9" d="M3289.6,731.8c-16.3,0-29.6-20.3-29.6-45.3s13.3-45.3,29.6-45.3s29.6,20.3,29.6,45.3S3305.9,731.8,3289.6,731.8
	z"/>
<path class="st10" d="M3289.6,643.1c15.3,0,27.7,19.5,27.7,43.5s-12.4,43.4-27.7,43.4s-27.7-19.5-27.7-43.5
	S3274.3,643.1,3289.6,643.1 M3289.6,639.4c-8.7,0-16.8,5.1-22.7,14.4c-5.6,8.8-8.7,20.4-8.7,32.7s3.1,23.9,8.7,32.7
	c5.9,9.3,14,14.4,22.7,14.4s16.8-5.1,22.7-14.4c5.6-8.8,8.7-20.4,8.7-32.7s-3.1-23.9-8.7-32.7
	C3306.4,644.5,3298.3,639.4,3289.6,639.4z"/>
<path class="st9" d="M3246.2,672.7c-25,0-45.3-13.3-45.3-29.6s20.3-29.6,45.3-29.6s45.3,13.3,45.3,29.6S3271.2,672.7,3246.2,672.7z"
	/>
<path class="st10" d="M3246.2,615.3c24,0,43.5,12.4,43.5,27.7s-19.5,27.7-43.5,27.7s-43.5-12.3-43.5-27.6S3222.2,615.3,3246.2,615.3
	 M3246.2,611.7c-12.3,0-23.9,3.1-32.7,8.7c-9.3,5.9-14.4,14-14.4,22.7s5.1,16.8,14.4,22.7c8.8,5.6,20.4,8.7,32.7,8.7
	c12.3,0,23.9-3.1,32.7-8.7c9.3-5.9,14.4-14,14.4-22.7s-5.1-16.8-14.4-22.7C3270.1,614.7,3258.5,611.7,3246.2,611.7z"/>
<path class="st9" d="M3289.6,644.9c-16.3,0-29.6-20.3-29.6-45.3s13.3-45.3,29.6-45.3s29.6,20.3,29.6,45.3S3305.9,644.9,3289.6,644.9
	z"/>
<path class="st10" d="M3289.6,556.2c15.3,0,27.7,19.5,27.7,43.5s-12.4,43.5-27.7,43.5s-27.7-19.5-27.7-43.5
	S3274.3,556.2,3289.6,556.2 M3289.6,552.5c-8.7,0-16.8,5.1-22.7,14.4c-5.6,8.8-8.7,20.4-8.7,32.7s3.1,23.9,8.7,32.7
	c5.9,9.3,14,14.4,22.7,14.4s16.8-5.1,22.7-14.4c5.6-8.8,8.7-20.4,8.7-32.7s-3.1-23.9-8.7-32.7
	C3306.4,557.6,3298.3,552.5,3289.6,552.5z"/>
<path class="st9" d="M3333.1,672.7c-25,0-45.3-13.3-45.3-29.6s20.3-29.6,45.3-29.6s45.3,13.3,45.3,29.6S3358.1,672.7,3333.1,672.7z"
	/>
<path class="st10" d="M3333.1,615.3c24,0,43.5,12.4,43.5,27.7s-19.5,27.7-43.5,27.7s-43.5-12.4-43.5-27.7S3309.1,615.3,3333.1,615.3
	 M3333.1,611.7c-12.3,0-23.9,3.1-32.7,8.7c-9.3,5.9-14.4,14-14.4,22.7s5.1,16.8,14.4,22.7c8.8,5.6,20.4,8.7,32.7,8.7
	s23.9-3.1,32.7-8.7c9.3-5.9,14.4-14,14.4-22.7s-5.1-16.8-14.4-22.7C3357,614.7,3345.4,611.7,3333.1,611.7z"/>
<path class="st9" d="M3289.6,675.1c-17.7,0-32-14.4-32-32s14.4-32,32-32c17.6,0,32,14.4,32,32S3307.3,675.1,3289.6,675.1z"/>
<path class="st10" d="M3289.6,612.9c16.7,0,30.2,13.5,30.2,30.2s-13.5,30.2-30.2,30.2s-30.2-13.5-30.2-30.2S3273,612.9,3289.6,612.9
	 M3289.6,609.2c-18.7,0-33.9,15.2-33.9,33.9s15.2,33.9,33.9,33.9s33.9-15.2,33.9-33.9S3308.3,609.2,3289.6,609.2z"/>
<path class="st9" d="M3324.3,694.9c-8.9,0-19.1-4.9-27.3-13.1c-13.3-13.3-17-31.1-8.3-39.8c3.1-3.1,7.4-4.7,12.5-4.7
	c8.9,0,19.1,4.9,27.3,13.1c13.3,13.3,17,31.1,8.3,39.8C3333.7,693.3,3329.4,694.9,3324.3,694.9L3324.3,694.9L3324.3,694.9z"/>
<path class="st10" d="M3301.2,638.8c8.2,0,18.1,4.5,26.3,12.7c12.7,12.7,16.5,29.7,8.3,37.8c-2.9,2.9-7,4.3-11.5,4.3
	c-8.2,0-18.1-4.5-26.3-12.7c-12.7-12.7-16.5-29.7-8.3-37.8C3292.5,640.2,3296.6,638.8,3301.2,638.8 M3301.2,636
	c-5.5,0-10.1,1.8-13.5,5.1c-4.6,4.6-6.2,11.6-4.4,19.7c1.7,7.7,6.2,15.5,12.8,22c8.4,8.4,19,13.5,28.2,13.5c5.5,0,10.1-1.8,13.5-5.1
	c4.6-4.6,6.2-11.6,4.4-19.7c-1.7-7.7-6.2-15.5-12.8-22C3321,641,3310.4,636,3301.2,636z"/>
<path class="st9" d="M3255,694.9c-5.1,0-9.4-1.6-12.5-4.7c-8.7-8.7-4.9-26.5,8.3-39.8c8.2-8.2,18.4-13.1,27.3-13.1
	c5.1,0,9.4,1.6,12.5,4.7c4.3,4.3,5.7,10.8,4,18.5c-1.6,7.4-6,15-12.4,21.3C3274.1,690.1,3263.9,694.9,3255,694.9L3255,694.9
	L3255,694.9z"/>
<path class="st10" d="M3278.1,638.8c4.6,0,8.6,1.4,11.5,4.3c8.1,8.1,4.4,25.1-8.3,37.8c-8.2,8.2-18.1,12.7-26.3,12.7
	c-4.6,0-8.6-1.4-11.5-4.3c-8.1-8.1-4.4-25.1,8.3-37.8C3260,643.3,3269.9,638.8,3278.1,638.8 M3278.1,636c-9.3,0-19.8,5-28.2,13.5
	c-6.5,6.5-11.1,14.3-12.8,22c-1.8,8.1-0.2,15.1,4.4,19.7c3.3,3.3,8,5.1,13.5,5.1c9.3,0,19.8-5,28.2-13.5c6.5-6.5,11.1-14.3,12.8-22
	c1.8-8.1,0.2-15.1-4.4-19.7C3288.2,637.8,3283.6,636,3278.1,636L3278.1,636z"/>
<path class="st9" d="M3278.1,648.8c-8.9,0-19.1-4.9-27.3-13.1c-13.3-13.3-17-31.1-8.3-39.8c3.1-3.1,7.4-4.7,12.5-4.7
	c8.9,0,19.1,4.9,27.3,13.1c6.3,6.3,10.7,13.9,12.4,21.3c1.7,7.6,0.3,14.2-4,18.5C3287.5,647.2,3283.2,648.8,3278.1,648.8
	L3278.1,648.8L3278.1,648.8z"/>
<path class="st10" d="M3255,592.6c8.2,0,18.1,4.5,26.3,12.7c12.7,12.7,16.5,29.7,8.3,37.8c-2.9,2.9-7,4.3-11.5,4.3
	c-8.2,0-18.1-4.5-26.3-12.7c-12.7-12.7-16.5-29.7-8.3-37.8C3246.4,594,3250.4,592.6,3255,592.6 M3255,589.9
	c-5.5,0-10.1,1.8-13.5,5.1c-4.6,4.6-6.2,11.6-4.4,19.7c1.7,7.7,6.2,15.5,12.8,22c8.4,8.4,19,13.5,28.2,13.5c5.5,0,10.1-1.8,13.5-5.1
	c4.6-4.6,6.2-11.6,4.4-19.7c-1.7-7.7-6.2-15.5-12.8-22C3274.8,594.9,3264.3,589.9,3255,589.9z"/>
<path class="st9" d="M3301.2,648.8c-5.1,0-9.4-1.6-12.5-4.7c-8.7-8.7-4.9-26.5,8.3-39.8c8.2-8.2,18.4-13.1,27.3-13.1
	c5.1,0,9.4,1.6,12.5,4.7c8.7,8.7,4.9,26.5-8.3,39.8C3320.2,643.9,3310,648.8,3301.2,648.8L3301.2,648.8L3301.2,648.8z"/>
<path class="st10" d="M3324.3,592.6c4.6,0,8.6,1.4,11.5,4.3c8.1,8.1,4.4,25.1-8.3,37.8c-8.2,8.2-18.1,12.7-26.3,12.7
	c-4.6,0-8.6-1.4-11.5-4.3c-8.1-8.1-4.4-25.1,8.3-37.8C3306.2,597.1,3316.1,592.6,3324.3,592.6 M3324.3,589.9
	c-9.3,0-19.8,5-28.2,13.5c-6.5,6.5-11.1,14.3-12.8,22c-1.8,8.1-0.2,15.1,4.4,19.7c3.3,3.3,8,5.1,13.5,5.1c9.3,0,19.8-5,28.2-13.5
	c6.5-6.5,11.1-14.3,12.8-22c1.8-8.1,0.2-15.1-4.4-19.7C3334.4,591.6,3329.7,589.9,3324.3,589.9L3324.3,589.9z"/>
<path class="st9" d="M3289.6,667.2c-6.4,0-12.5-2.5-17-7.1c-4.5-4.5-7.1-10.6-7.1-17s2.5-12.5,7.1-17c4.5-4.5,10.6-7.1,17-7.1
	c6.4,0,12.5,2.5,17,7.1c4.5,4.5,7.1,10.6,7.1,17s-2.5,12.5-7.1,17C3302.1,664.7,3296.1,667.2,3289.6,667.2z"/>
<path class="st10" d="M3289.6,620.4c5.8,0,11.6,2.2,16,6.6c8.9,8.9,8.9,23.2,0,32.1c-4.4,4.4-10.2,6.6-16,6.6s-11.6-2.2-16-6.6
	c-8.9-8.9-8.9-23.2,0-32.1C3278,622.6,3283.8,620.4,3289.6,620.4 M3289.6,617.6c-6.8,0-13.2,2.6-18,7.5c-9.9,9.9-9.9,26.1,0,36
	c4.8,4.8,11.2,7.5,18,7.5s13.2-2.6,18-7.5s7.5-11.2,7.5-18s-2.6-13.2-7.5-18C3302.7,620.3,3296.4,617.6,3289.6,617.6z"/>
<path class="st9" d="M3308.2,655.8c-10.7,0-19.4-5.7-19.4-12.7s8.7-12.7,19.4-12.7c10.7,0,19.4,5.7,19.4,12.7
	S3318.9,655.8,3308.2,655.8z"/>
<path class="st10" d="M3308.2,631.2c10.3,0,18.6,5.3,18.6,11.9s-8.3,11.9-18.6,11.9c-10.3,0-18.6-5.3-18.6-11.9
	S3298,631.2,3308.2,631.2 M3308.2,629.6c-11.3,0-20.2,5.9-20.2,13.5s8.9,13.5,20.2,13.5c11.3,0,20.2-5.9,20.2-13.5
	S3319.5,629.6,3308.2,629.6z"/>
<path class="st9" d="M3289.6,681.1c-7,0-12.7-8.7-12.7-19.4s5.7-19.4,12.7-19.4s12.7,8.7,12.7,19.4
	C3302.3,672.4,3296.6,681.1,3289.6,681.1z"/>
<path class="st10" d="M3289.6,643.1c6.6,0,11.9,8.3,11.9,18.6s-5.3,18.6-11.9,18.6s-11.9-8.3-11.9-18.6S3283.1,643.1,3289.6,643.1
	 M3289.6,641.5c-7.5,0-13.5,8.9-13.5,20.2s5.9,20.2,13.5,20.2c7.6,0,13.5-8.9,13.5-20.2S3297.2,641.5,3289.6,641.5z"/>
<path class="st9" d="M3271,655.8c-10.7,0-19.4-5.7-19.4-12.7s8.7-12.7,19.4-12.7c10.7,0,19.4,5.7,19.4,12.7S3281.7,655.8,3271,655.8
	z"/>
<path class="st10" d="M3271,631.2c10.3,0,18.6,5.3,18.6,11.9s-8.3,11.9-18.6,11.9c-10.3,0-18.6-5.3-18.6-11.9
	S3260.8,631.2,3271,631.2 M3271,629.6c-11.3,0-20.2,5.9-20.2,13.5s8.9,13.5,20.2,13.5c11.3,0,20.2-5.9,20.2-13.5
	S3282.3,629.6,3271,629.6z"/>
<path class="st9" d="M3289.6,643.9c-7,0-12.7-8.7-12.7-19.4s5.7-19.4,12.7-19.4s12.7,8.7,12.7,19.4S3296.6,643.9,3289.6,643.9z"/>
<path class="st10" d="M3289.6,605.9c6.6,0,11.9,8.3,11.9,18.6s-5.3,18.6-11.9,18.6s-11.9-8.3-11.9-18.6S3283.1,605.9,3289.6,605.9
	 M3289.6,604.3c-7.5,0-13.5,8.9-13.5,20.2s5.9,20.2,13.5,20.2c7.6,0,13.5-8.9,13.5-20.2S3297.2,604.3,3289.6,604.3z"/>
<path class="st9" d="M3289.6,656.8c-7.6,0-13.7-6.2-13.7-13.7s6.2-13.7,13.7-13.7s13.7,6.2,13.7,13.7S3297.2,656.8,3289.6,656.8z"/>
<path class="st10" d="M3289.6,630.2c7.1,0,12.9,5.8,12.9,12.9s-5.8,12.9-12.9,12.9s-12.9-5.8-12.9-12.9S3282.5,630.2,3289.6,630.2
	 M3289.6,628.6c-8,0-14.5,6.5-14.5,14.5s6.5,14.5,14.5,14.5s14.5-6.5,14.5-14.5S3297.6,628.6,3289.6,628.6z"/>
<path class="st11" d="M3048.8,738.5c-8.7,0-20.9-21.1-28.5-41.9c-2.3-6.4-4.3-12.8-5.7-18.8c-2.5,5.7-5.5,11.6-8.9,17.5
	c-12.4,21.4-26.5,36.4-34.3,36.4c-1,0-1.9-0.2-2.8-0.7c-3.7-2.1-4.2-8.5-1.5-18.4c2.5-9.1,7.4-20.3,13.9-31.4
	c3.4-5.9,7-11.5,10.7-16.4c-5.9,1.8-12.4,3.3-19.1,4.5c-9.5,1.7-18.8,2.6-26.9,2.6c-8.5,0-23-1-24.3-8c-1.6-9.2,22-18.3,46.2-22.6
	c6.7-1.2,13.3-2,19.5-2.3c-5.2-3.4-10.5-7.4-15.7-11.8c-9.9-8.3-18.3-17.1-23.8-24.8c-6-8.4-7.7-14.6-4.9-17.8
	c1.2-1.4,3-2.1,5.4-2.1c8.5,0,25.3,9.2,41.6,23c5.2,4.4,10.1,8.9,14.3,13.4c-0.7-6.1-1.1-12.8-1.1-19.6c0-24.6,4.9-49.4,14.2-49.4
	s14.2,24.9,14.2,49.4c0,9.6-0.8,18.9-2.1,26.8c6.2-5.2,13.9-10.5,22.2-15.3c16.7-9.6,32.8-15.6,42.2-15.6c3.9,0,6.5,1.1,7.7,3.2
	c2.1,3.7-0.6,9.5-8,16.7c-6.7,6.6-16.6,13.9-27.7,20.3c-5.9,3.4-11.8,6.4-17.5,8.9c6,1.4,12.4,3.4,18.8,5.7
	c23.1,8.4,44.8,21.5,41.6,30.2c-1.2,3.3-5.4,4.9-12.5,4.9l0,0c-9.7,0-24.2-3.2-38.8-8.5c-6.4-2.3-12.5-5-18-7.7
	c2.8,5.5,5.4,11.7,7.7,18c4.4,12.1,7.3,24,8.2,33.4c1,10.3-0.6,16.5-4.6,17.9C3050,738.3,3049.4,738.4,3048.8,738.5L3048.8,738.5z"
	/>
<path class="st12" d="M3017.4,551.5c6.9,0,12.5,21.4,12.5,47.7c0,12-1.2,23-3.1,31.4c6.3-5.9,15.2-12.4,25.7-18.4
	c16.7-9.7,32.7-15.4,41.3-15.4c3.1,0,5.3,0.8,6.2,2.3c3.5,6-12.3,21.5-35.1,34.7c-7.9,4.5-15.6,8.2-22.4,10.8
	c7.2,1.4,15.4,3.7,23.9,6.8c24.8,9,42.9,21.6,40.6,28.1c-0.9,2.6-4.9,3.8-10.9,3.8c-9.2,0-23.2-2.9-38.2-8.4
	c-8.5-3.1-16.3-6.6-22.7-10.2c3.6,6.4,7.1,14.2,10.2,22.7c9,24.8,11.1,46.7,4.6,49.1c-0.4,0.1-0.8,0.2-1.2,0.2
	c-6.7,0-18.4-17.5-26.9-40.8c-3.1-8.5-5.4-16.8-6.8-23.9c-2.6,6.8-6.3,14.5-10.8,22.4c-12,20.7-25.8,35.5-32.8,35.5
	c-0.7,0-1.3-0.2-1.9-0.5c-6-3.5-0.1-24.7,13-47.6c4.5-7.9,9.4-14.9,14-20.6c-6.9,2.4-15.2,4.5-24.1,6.1c-9.7,1.7-18.9,2.5-26.6,2.5
	c-12.9,0-21.8-2.3-22.6-6.6c-1.2-6.8,18.9-16,44.8-20.6c9-1.6,17.4-2.4,24.8-2.5c-6.3-3.8-13.2-8.7-20.2-14.6
	c-20.2-16.9-33-35-28.5-40.2c0.8-1,2.2-1.5,4-1.5c7.9,0,24.1,8.8,40.5,22.6c7,5.8,13,11.8,17.8,17.4c-1.2-7.2-1.8-15.7-1.8-24.8
	C3004.9,572.8,3010.5,551.5,3017.4,551.5 M3017.4,548.1c-5.2,0-9.3,5.6-12.1,16.5c-2.4,9.3-3.8,21.6-3.8,34.6
	c0,5.1,0.2,10.1,0.6,14.9c-3.4-3.4-7.1-6.8-11-10.1c-16.9-14.2-33.7-23.4-42.7-23.4c-3.6,0-5.6,1.5-6.7,2.7
	c-3.3,4-1.7,10.7,4.9,19.9c5.5,7.8,14.1,16.8,24.1,25.1c3.9,3.3,7.9,6.3,11.8,9.1c-4.8,0.4-9.8,1.1-14.8,2
	c-12.8,2.3-24.7,5.7-33.4,9.7c-10.3,4.7-15.1,9.7-14.2,14.8c1.4,7.7,14.9,9.4,25.9,9.4c8.2,0,17.6-0.9,27.2-2.6
	c5-0.9,9.9-2,14.6-3.2c-2.7,4-5.4,8.2-8,12.6c-6.5,11.3-11.5,22.6-14,31.8c-3,10.9-2.2,17.8,2.2,20.4c1.1,0.6,2.3,0.9,3.6,0.9
	c9.8,0,25-18.7,35.7-37.3c2.5-4.4,4.9-8.9,6.9-13.2c1.3,4.6,2.8,9.4,4.5,14.2c7.8,21.4,20.1,43,30.1,43c0.8,0,1.6-0.1,2.4-0.4
	c4.9-1.8,6.8-8.4,5.8-19.7c-0.9-9.6-3.8-21.6-8.3-33.8c-1.7-4.8-3.7-9.4-5.7-13.8c4.4,2,9,3.9,13.8,5.7c15,5.4,29.3,8.6,39.4,8.6
	c7.9,0,12.7-2,14.1-6c1.8-4.9-2.1-10.6-11.4-17c-7.9-5.5-19-10.9-31.2-15.4c-4.8-1.7-9.6-3.3-14.2-4.5c4.4-2,8.8-4.4,13.2-6.9
	c11.3-6.5,21.3-13.8,28.1-20.6c8.1-8,10.8-14.3,8.2-18.8c-1.6-2.7-4.6-4-9.2-4c-9.6,0-26.1,6.1-43,15.8c-6.9,4-13.4,8.3-18.9,12.6
	c1-7,1.5-14.8,1.5-22.7c0-13-1.3-25.3-3.8-34.6C3026.6,553.6,3022.6,548.1,3017.4,548.1L3017.4,548.1z"/>
<circle class="st13" cx="3015.3" cy="644.1" r="25"/>
<path class="st11" d="M3229.2,728.7c-8.7,0-20.9-21.1-28.5-41.9c-2.3-6.4-4.3-12.8-5.7-18.8c-2.5,5.7-5.5,11.6-8.9,17.5
	c-12.2,21.5-26.3,36.5-34.1,36.5c-1,0-1.9-0.2-2.8-0.7c-8.1-4.7,0.1-28.6,12.4-49.9c3.4-5.9,7.1-11.5,10.7-16.4
	c-5.9,1.8-12.4,3.3-19.1,4.5c-9.5,1.7-18.8,2.6-26.9,2.6c-8.5,0-23-1-24.3-8c-0.7-4.2,3.8-8.7,13.2-13c8.6-3.9,20.3-7.4,33-9.6
	c6.7-1.2,13.3-2,19.5-2.3c-5.2-3.4-10.5-7.4-15.7-11.8c-9.9-8.3-18.3-17.1-23.8-24.8c-6-8.4-7.7-14.6-4.9-17.8
	c1.2-1.4,3-2.1,5.4-2.1c8.5,0,25.3,9.2,41.6,23c5.2,4.4,10.1,8.9,14.3,13.4c-0.7-6.1-1.1-12.8-1.1-19.6c0-24.6,4.9-49.4,14.2-49.4
	s14.2,24.9,14.2,49.4c0,9.6-0.8,18.9-2.1,26.8c6.2-5.2,13.9-10.5,22.2-15.3c16.7-9.6,32.8-15.6,42.2-15.6c3.9,0,6.5,1.1,7.7,3.2
	c2.1,3.7-0.6,9.5-8,16.7c-6.7,6.6-16.6,13.9-27.7,20.3c-5.9,3.4-11.8,6.4-17.5,8.9c6,1.4,12.4,3.4,18.8,5.7
	c12.1,4.4,23.1,9.8,30.8,15.2c8.5,5.9,12.2,11.1,10.7,15.1c-1.2,3.3-5.4,4.9-12.5,4.9l0,0c-9.7,0-24.2-3.2-38.8-8.5
	c-6.4-2.3-12.5-5-18-7.7c2.8,5.5,5.4,11.7,7.7,18c8.4,23.1,12.3,48.1,3.6,51.3C3230.4,728.6,3229.8,728.7,3229.2,728.7L3229.2,728.7
	z"/>
<path class="st12" d="M3197.8,541.7c6.9,0,12.5,21.4,12.5,47.7c0,12-1.2,23-3.1,31.4c6.3-5.9,15.2-12.4,25.7-18.4
	c16.7-9.7,32.7-15.4,41.3-15.4c3.1,0,5.3,0.8,6.2,2.3c3.5,6-12.3,21.5-35.1,34.7c-7.9,4.5-15.6,8.2-22.4,10.8
	c7.2,1.4,15.4,3.7,23.9,6.8c24.8,9,42.9,21.6,40.6,28.1c-0.9,2.6-4.9,3.8-10.9,3.8c-9.2,0-23.2-2.9-38.2-8.4
	c-8.5-3.1-16.3-6.6-22.7-10.2c3.6,6.4,7.1,14.2,10.2,22.7c9,24.8,11.1,46.7,4.6,49.1c-0.4,0.1-0.8,0.2-1.2,0.2
	c-6.7,0-18.4-17.5-26.9-40.8c-3.1-8.5-5.4-16.8-6.8-23.9c-2.6,6.8-6.3,14.5-10.8,22.4c-12,20.7-25.8,35.5-32.8,35.5
	c-0.7,0-1.3-0.2-1.9-0.5c-6-3.5-0.1-24.7,13-47.6c4.5-7.9,9.4-14.9,14-20.6c-6.9,2.4-15.2,4.5-24.1,6.1c-9.7,1.7-18.9,2.5-26.6,2.5
	c-12.9,0-21.8-2.3-22.6-6.6c-1.2-6.8,18.9-16,44.8-20.6c9-1.6,17.4-2.4,24.8-2.5c-6.3-3.8-13.2-8.7-20.2-14.6
	c-20.2-16.9-33-35-28.5-40.2c0.8-1,2.2-1.5,4-1.5c7.9,0,24.1,8.8,40.5,22.6c7,5.8,13,11.8,17.8,17.4c-1.2-7.2-1.8-15.7-1.8-24.8
	C3185.3,563.1,3190.9,541.7,3197.8,541.7 M3197.8,538.3c-5.2,0-9.3,5.6-12.1,16.5c-2.4,9.3-3.8,21.6-3.8,34.6
	c0,5.1,0.2,10.1,0.6,14.9c-3.4-3.4-7.1-6.8-11-10.1c-16.9-14.2-33.7-23.4-42.7-23.4c-3.6,0-5.6,1.5-6.7,2.7
	c-3.3,4-1.7,10.7,4.9,19.9c5.5,7.8,14.1,16.8,24.1,25.1c3.9,3.3,7.9,6.3,11.8,9.1c-4.8,0.4-9.8,1.1-14.8,2
	c-12.8,2.3-24.7,5.7-33.4,9.7c-10.3,4.7-15.1,9.7-14.2,14.8c1.4,7.7,14.9,9.4,25.9,9.4c8.2,0,17.6-0.9,27.2-2.6
	c5-0.9,9.9-2,14.6-3.2c-2.7,4-5.4,8.2-8,12.6c-6.5,11.3-11.5,22.6-14,31.8c-3,10.9-2.2,17.8,2.2,20.4c1.1,0.6,2.3,0.9,3.6,0.9
	c9.8,0,25-18.7,35.7-37.3c2.5-4.4,4.9-8.9,6.9-13.2c1.3,4.6,2.8,9.4,4.5,14.2c7.8,21.4,20.1,43,30.1,43c0.8,0,1.6-0.1,2.4-0.4
	c4.9-1.8,6.8-8.4,5.8-19.7c-0.9-9.6-3.8-21.6-8.3-33.8c-1.7-4.8-3.7-9.4-5.7-13.8c4.4,2,9,3.9,13.8,5.7c15,5.4,29.3,8.6,39.4,8.6
	c7.9,0,12.7-2,14.1-6c1.8-4.9-2.1-10.6-11.4-17c-7.9-5.5-19-10.9-31.2-15.4c-4.8-1.7-9.6-3.3-14.2-4.5c4.4-2,8.8-4.4,13.2-6.9
	c11.3-6.5,21.3-13.8,28.1-20.6c8.1-8,10.8-14.3,8.2-18.8c-1.6-2.7-4.6-4-9.2-4c-9.6,0-26.1,6.1-43,15.8c-6.9,4-13.4,8.3-18.9,12.6
	c1-7,1.5-14.8,1.5-22.7c0-13-1.3-25.3-3.8-34.6C3207.1,543.9,3203,538.3,3197.8,538.3L3197.8,538.3z"/>
<circle class="st13" cx="3195.7" cy="634.4" r="25"/>
<path class="st11" d="M3415.7,738.5c-8.7,0-20.9-21.1-28.5-41.9c-2.3-6.4-4.3-12.8-5.7-18.8c-2.5,5.7-5.5,11.6-8.9,17.5
	c-12.4,21.4-26.5,36.4-34.3,36.4c-1,0-1.9-0.2-2.8-0.7c-3.7-2.1-4.2-8.5-1.5-18.4c2.5-9.1,7.4-20.3,13.9-31.4
	c3.4-5.9,7-11.5,10.7-16.4c-5.9,1.8-12.4,3.3-19.1,4.5c-9.5,1.7-18.8,2.6-26.9,2.6c-8.5,0-23-1-24.3-8c-1.6-9.2,22-18.3,46.2-22.6
	c6.7-1.2,13.3-2,19.5-2.3c-5.2-3.4-10.5-7.4-15.7-11.8c-9.9-8.3-18.3-17.1-23.8-24.8c-6-8.4-7.7-14.6-4.9-17.8
	c1.2-1.4,3-2.1,5.4-2.1c8.5,0,25.3,9.2,41.6,23c5.2,4.4,10.1,8.9,14.3,13.4c-0.7-6.1-1.1-12.8-1.1-19.6c0-24.6,4.9-49.4,14.2-49.4
	c9.3,0,14.2,24.9,14.2,49.4c0,9.6-0.8,18.9-2.1,26.8c6.2-5.2,13.9-10.5,22.2-15.3c16.7-9.6,32.8-15.6,42.2-15.6
	c3.9,0,6.5,1.1,7.7,3.2c2.1,3.7-0.6,9.5-8,16.7c-6.7,6.6-16.6,13.9-27.7,20.3c-5.9,3.4-11.8,6.4-17.5,8.9c6,1.4,12.4,3.4,18.8,5.7
	c23.1,8.4,44.8,21.5,41.6,30.2c-1.2,3.3-5.4,4.9-12.5,4.9l0,0c-9.7,0-24.2-3.2-38.8-8.5c-6.4-2.3-12.5-5-18-7.7
	c2.8,5.5,5.4,11.7,7.7,18c4.4,12.1,7.3,24,8.2,33.4c1,10.3-0.6,16.5-4.6,17.9C3416.9,738.3,3416.3,738.4,3415.7,738.5L3415.7,738.5z
	"/>
<path class="st12" d="M3384.3,551.5c6.9,0,12.5,21.4,12.5,47.7c0,12-1.2,23-3.1,31.4c6.3-5.9,15.2-12.4,25.7-18.4
	c16.7-9.7,32.7-15.4,41.3-15.4c3.1,0,5.3,0.8,6.2,2.3c3.5,6-12.3,21.5-35.1,34.7c-7.9,4.5-15.6,8.2-22.4,10.8
	c7.2,1.4,15.4,3.7,23.9,6.8c24.8,9,42.9,21.6,40.6,28.1c-0.9,2.6-4.9,3.8-10.9,3.8c-9.2,0-23.2-2.9-38.2-8.4
	c-8.5-3.1-16.3-6.6-22.7-10.2c3.6,6.4,7.1,14.2,10.2,22.7c9,24.8,11.1,46.7,4.6,49.1c-0.4,0.1-0.8,0.2-1.2,0.2
	c-6.7,0-18.4-17.5-26.9-40.8c-3.1-8.5-5.4-16.8-6.8-23.9c-2.6,6.8-6.3,14.5-10.8,22.4c-12,20.7-25.8,35.5-32.8,35.5
	c-0.7,0-1.3-0.2-1.9-0.5c-6-3.5-0.1-24.7,13-47.6c4.5-7.9,9.4-14.9,14-20.6c-6.9,2.4-15.2,4.5-24.1,6.1c-9.7,1.7-18.9,2.5-26.6,2.5
	c-12.9,0-21.8-2.3-22.6-6.6c-1.2-6.8,18.9-16,44.8-20.6c9-1.6,17.4-2.4,24.8-2.5c-6.3-3.8-13.2-8.7-20.2-14.6
	c-20.2-16.9-33-35-28.5-40.2c0.8-1,2.2-1.5,4-1.5c7.9,0,24.1,8.8,40.5,22.6c7,5.8,13,11.8,17.8,17.4c-1.2-7.2-1.8-15.7-1.8-24.8
	C3371.8,572.8,3377.4,551.5,3384.3,551.5 M3384.3,548.1c-5.2,0-9.3,5.6-12.1,16.5c-2.4,9.3-3.8,21.6-3.8,34.6
	c0,5.1,0.2,10.1,0.6,14.9c-3.4-3.4-7.1-6.8-11-10.1c-16.9-14.2-33.7-23.4-42.7-23.4c-3.6,0-5.6,1.5-6.7,2.7
	c-3.3,4-1.7,10.7,4.9,19.9c5.5,7.8,14.1,16.8,24.1,25.1c3.9,3.3,7.9,6.3,11.8,9.1c-4.8,0.4-9.8,1.1-14.8,2
	c-12.8,2.3-24.7,5.7-33.4,9.7c-10.3,4.7-15.1,9.7-14.2,14.8c1.4,7.7,14.9,9.4,25.9,9.4c8.2,0,17.6-0.9,27.2-2.6
	c5-0.9,9.9-2,14.6-3.2c-2.7,4-5.4,8.2-8,12.6c-6.5,11.3-11.5,22.6-14,31.8c-3,10.9-2.2,17.8,2.2,20.4c1.1,0.6,2.3,0.9,3.6,0.9
	c9.8,0,25-18.7,35.7-37.3c2.5-4.4,4.9-8.9,6.9-13.2c1.3,4.6,2.8,9.4,4.5,14.2c7.8,21.4,20.1,43,30.1,43c0.8,0,1.6-0.1,2.4-0.4
	c4.9-1.8,6.8-8.4,5.8-19.7c-0.9-9.6-3.8-21.6-8.3-33.8c-1.7-4.8-3.7-9.4-5.7-13.8c4.4,2,9,3.9,13.8,5.7c15,5.4,29.3,8.6,39.4,8.6
	c7.9,0,12.7-2,14.1-6c1.8-4.9-2.1-10.6-11.4-17c-7.9-5.5-19-10.9-31.2-15.4c-4.8-1.7-9.6-3.3-14.2-4.5c4.4-2,8.8-4.4,13.2-6.9
	c11.3-6.5,21.3-13.8,28.1-20.6c8.1-8,10.8-14.3,8.2-18.8c-1.6-2.7-4.6-4.1-9.2-4.1c-9.6,0-26.1,6.1-43,15.8
	c-6.9,4-13.4,8.3-18.9,12.6c1-7,1.5-14.8,1.5-22.7c0-13-1.3-25.3-3.8-34.6C3393.5,553.6,3389.5,548.1,3384.3,548.1L3384.3,548.1z"/>
<circle class="st13" cx="3382.2" cy="644.1" r="25"/>
<path class="st4" d="M3184.5,1488.6c-15.8-66.8,34.4-132.3,91-218c63.9-96.8,18.8-157.2-88.7-174.4c-60.6-9.5-85.8,23.3-114,101
	c-56.8-115.2-158.8-114.7-207.5-42.9c-48.2,71.2,24.6,170,100.2,212C3024,1399.2,3103.6,1437.3,3184.5,1488.6L3184.5,1488.6z"/>
<path class="st4" d="M1946.1,408.4c-14.2-60.1,31-119,81.9-196c57.5-87.1,16.9-141.4-79.7-156.8c-54.5-8.5-77.2,21-102.5,90.8
	c-51.1-103.6-142.8-103.2-186.5-38.6c-43.3,64,22.1,152.8,90,190.6C1801.8,328,1873.4,362.3,1946.1,408.4L1946.1,408.4z"/>
</svg>
