<?xml version="1.0" encoding="utf-8"?>
<!-- Generator: Adobe Illustrator 21.1.0, SVG Export Plug-In . SVG Version: 6.00 Build 0)  -->
<svg version="1.1" id="Слой_1" xmlns="http://www.w3.org/2000/svg" xmlns:xlink="http://www.w3.org/1999/xlink" x="0px" y="0px"
	 viewBox="0 0 980 815.6" style="enable-background:new 0 0 980 815.6;" xml:space="preserve">
<style type="text/css">
	.st0{fill:#FEF3BB;}
	.st1{fill:#CB0300;}
	.st2{fill:none;stroke:#CB0300;stroke-width:7.1401;stroke-miterlimit:10;}
	.st3{display:none;fill:#FC2B31;}
	.st4{display:none;fill:#BD0005;}
	.st5{opacity:0.8;}
	.st6{fill:#B09F50;}
	.st7{display:none;fill:#E7000D;}
	.st8{display:none;}
	.st9{display:none;fill:#FE5C00;}
	.st10{display:none;fill:#87C6C8;}
	.st11{display:none;fill:#FC4742;}
	.st12{display:none;opacity:0.8;fill:#FEBDD1;enable-background:new    ;}
</style>
<path class="st0" d="M897,707.4c-113.8,14.7-271.5,22.7-411.8,20.8c-122.8-1.7-291.6-11.5-398.8-48.7l-1.8-0.7l-0.4-1.9
	c-1.3-6-2.5-12.3-3.5-18.6c-11.2-64.9-13.6-149.3-7.2-251.1c5.4-86.5,17.5-188.7,36-303.6l0.4-2.8l2.9-0.1
	c127.6-4.3,276.7-8.5,415.3-7.1c144.9,1.3,263.2,8.5,361.7,22.1l2.7,0.3l0.2,2.7c22.8,250.1,25,436.1,7.3,585.5l-0.3,2.7L897,707.4
	L897,707.4z"/>
<path class="st1" d="M112.8,104.2c286.2-9.6,561.9-14.4,776.5,15c19.5,215.6,27.2,416.8,7.3,584.8
	c-207.1,26.9-620.2,37.7-809.1-27.6c-1.3-6.1-2.5-12.2-3.5-18.5C60.1,519.2,79.4,313.3,112.8,104.2 M107,97.6l-0.9,5.6
	c-18.4,115-30.5,217.2-36,303.9c-6.4,101.9-4,186.7,7.3,251.9c1.1,6.4,2.3,12.7,3.6,18.7l0.8,3.8l3.7,1.3
	c107.7,37.3,276.8,47.1,399.7,48.8c140.5,1.9,298.4-6.1,412.3-20.8l5.3-0.7l0.7-5.3c17.7-149.6,15.4-335.9-7.3-586.2l-0.5-5.5
	l-5.4-0.8c-98.7-13.5-217.2-20.7-362.3-22.1c-138.6-1.3-287.7,2.9-415.4,7.1L107,97.6L107,97.6z"/>
<path class="st2" d="M112.8,104.2c51.1,91.6,115,186.1,188.2,282.9c45.7,60.3,95,121.4,147.3,183.1c83.9-48,140.7-116.5,201.8-175.7
	C739.5,308,819,216.1,889.3,119.3"/>
<path class="st2" d="M650.1,394.4c96.4,126.7,193.2,254.1,246.6,309.5"/>
<path class="st2" d="M301.1,387.1c-65.9,90.9-138.5,181-216.9,270.7"/>
<path class="st3" d="M454.8,370.6c-7.1-29.9-20.9-53.4-42.2-72.1c-27-23.6-40.3-46.9-37.8-65.6c1.1-7.6,5.4-18.2,20.2-25.1
	c6.2-3,12.3-5.2,18.3-6.8c21.5-5.6,41.8-2.4,58.6,9.3c12.5,8.7,22.8,22,30.4,39c8.6-16.6,23.5-29,41.6-33.8
	c19.5-5.1,40.2-0.6,56.4,12.4c16.6,13.2,24.3,31.1,21.6,50.2c-3.1,21.5-18.7,40.5-41.1,49.8c-20.6,8.5-37.9,13.9-53.3,18.5
	c-24,7.3-43,13.1-63.4,27.6l-7.2,5.1L454.8,370.6L454.8,370.6z"/>
<path class="st4" d="M414.8,206.8c40.8-10.7,72.9,13.5,87.4,59.5c5.8-23.5,23-39.5,43.1-44.8c16.7-4.4,35.4-1.3,51.1,11.3
	c35.4,28.2,19.8,74-18,89.7c-52.3,21.7-83.1,22.2-117.8,46.8c-7.4-31-22.1-55.9-44-75.2c-38.1-33.5-48.4-66.8-19-80.8
	C403.5,210.4,409.2,208.3,414.8,206.8 M411.8,195.2L411.8,195.2c-6.4,1.7-12.9,4.1-19.3,7.1c-17.2,8.1-22.3,20.7-23.5,29.7
	c-2.8,20.7,11.2,46,39.8,70.9c20.3,17.7,33.4,40.3,40.3,68.9l4.1,17.2l14.5-10.2c19.6-13.9,38.2-19.6,61.6-26.8
	c15.5-4.8,33-10.1,53.8-18.8c24.2-10.1,41.4-30.9,44.8-54.4c1.4-10.1,0.2-20.3-3.6-29.5c-4-9.9-10.8-18.7-20.2-26.1
	c-17.8-14.2-40.3-19.1-61.6-13.5c-12.2,3.2-23.4,9.7-32.4,18.7c-2.6,2.6-5,5.4-7.1,8.4C482.8,201.1,449.7,185.2,411.8,195.2
	L411.8,195.2z"/>
<g class="st5">
	<polygon class="st6" points="112.8,104.2 301.1,387.1 84.1,657.8 254.5,384.8 109.6,124.8 	"/>
	<path class="st6" d="M274.6,423.1l26.4-36l147.3,183.1c71-42.8,137.5-104.9,202-175.4l183.4,243.6L648.2,414.9L444.5,614
		L274.6,423.1L274.6,423.1z"/>
	<polygon class="st6" points="650.4,394.9 883.5,127.2 716.2,374.9 854.8,656.8 	"/>
</g>
<path class="st7" d="M1087.1,441.5l-75.3-142.3C1029,132,1122-81.3,1213.9-101.1c74.2-16,117.7,24.4,101.5,115.5
	c-4.9,27.3-41.7,71-83.2,118.5c77.5-75.1,135.8-109,167.1-49.1c38,72.6-36,107.1-132,143.4c84.8-2.5,151.6,6.7,158.7,76
	c6,58.1-74.7,51.4-161,42.6c67.7,49.8,126.6,98.9,90.2,140.7c-36,24.7-98.2,4.6-163.3-20.1C1156.7,452.9,1131,446,1087.1,441.5
	L1087.1,441.5z"/>
<path class="st8" d="M996.8,1019.1l18.5-0.3c74.5,94.8,183.4,167.8,255.6,158.6c28.1-3.6,51-17.7,69.3-33.4
	c5.3-23.2,14.8-42.7,28.2-59.1c-2.7,20.3-6.2,39.2-12,54.5c16.9-3.4,32.9-3.8,47.9-1.1c-12.2,7.3-27.2,12.4-44.5,15.7
	c19.8,10.5,37.1,20.8,46.2,30.8c-16.1-1.5-35.6-10.2-56.2-21.1c-26.1,27.7-64,41.6-110.4,36.2C1161.1,1190.8,1062,1105,996.8,1019.1
	L996.8,1019.1z"/>
<path class="st8" d="M1020.1,936.6l18.5-0.3c74.5,94.8,172.3,155.8,244.5,146.7c28.1-3.6,51-17.7,69.3-33.4
	c5.3-23.2,14.8-42.7,28.2-59.1c-2.7,20.3-6.2,39.2-12,54.5c16.9-3.4,32.9-3.8,47.9-1.1c-12.2,7.3-27.2,12.4-44.5,15.7
	c19.8,10.5,37.1,20.8,46.2,30.8c-16.1-1.5-35.6-10.2-56.2-21.1c-26.1,27.7-64,41.6-110.4,36.2
	C1173.3,1096.4,1085.3,1022.4,1020.1,936.6L1020.1,936.6z"/>
<path class="st9" d="M275.6,84.2C216.1,69.6,146.5,67.4,72.1,70.9c-3.6,0.2-5.1,4.7-2.3,7c44.5,36,104.3,68.4,174.5,98.4L275.6,84.2
	L275.6,84.2z"/>
<path class="st10" d="M254,79.8c164.8-254.5,396-316.1,585.5-236.3c175.4,74,325.3,259.1,373.2,341.2
	c55.7,95.4,97.9,201.8,181.5,232.8c104.7,38.9,257.8-0.1,322-80.6c3.5-4.4,10.7-2,10.8,3.7c5.8,287.1-249.7,671.8-587.3,687.5
	c-406.3,3.4-782.9-124.4-919.9-481.6C168.2,376.4,181.4,221.2,254,79.8L254,79.8z"/>
<path class="st11" d="M1050.6,505.8l5.1-160.9c97.8-136.7,284.4-275.8,374.1-247.4c72.4,22.9,90.1,79.6,30.8,150.7
	c-17.8,21.3-71.4,41-131,61.6c104.5-26.8,172-27.3,169.5,40.2c-3,81.9-84.4,75.1-185.7,59.1c74.9,39.9,128.3,81,100.1,144.7
	c-23.7,53.4-90.3,7.6-160.9-42.8c34.1,76.8,60.9,148.7,8.6,166.9c-43.6,3.6-87.6-44.7-131.8-98.4
	C1105.4,550.3,1086.5,531.5,1050.6,505.8L1050.6,505.8z"/>
<ellipse transform="matrix(0.4766 -0.8791 0.8791 0.4766 77.1094 472.9094)" class="st12" cx="435.7" cy="171.7" rx="47.7" ry="77.1"/>
<path class="st8" d="M573.5,136.3c-3.7-2.2-9.1-2.9-13.3-3.6c-5.1-0.9-10.3-1.4-15.5-1.8c-1-0.1-2-0.2-3-0.2c-0.5,0-1-0.1-1.5-0.1
	c-1.1-0.1-0.9-0.4-1.3-1.4c-0.9-2.2-1.8-4.4-2.9-6.5c-1-2-2.2-3.9-3.3-5.8c-0.4-0.7-0.9-1.4-1.3-2.2c-1.3-1.8-3.4-3.9-4.2-5.9
	c-0.1-0.2-0.4-0.3-0.4-0.5c-0.1-0.5,0.9-1.1,1.4-1.5c1.8-1.5,3.6-3,5.4-4.5c4.1-3.3,8.3-6.6,12.6-9.7c3.3-2.4,7-5,11-6
	c-5.9-0.3-12.3,2.6-17.7,4.7c-6.6,2.5-13,5.4-19.4,8.3c-1.1,0.5-2.5-1.7-3.4-2.6c-1.2-1.2-2.4-2.4-3.6-3.5c-2.7-2.5-5.5-4.9-8.4-7.1
	c-1.4-1-14.6-9.3-14.5-9.4c4.2-11.1,8.4-22.2,12.6-33.3c0.1-0.2,0.2-0.4,0.2-0.6c-6.9,9.4-13.8,18.7-20.7,28.1
	c-0.4,0.6-0.8,1.1-1.2,1.7c-0.4,0.6-5.4-1.5-6.3-1.8c-7.2-2-14.7-3.1-22.2-3c-1.7,0-3.4,0.1-5.1,0.2c-0.2-1.5-0.3-3.1-0.5-4.6
	c-0.3-3.8-0.6-7.6-0.6-11.5c-0.1-5.1-0.7-13,2.8-17.2c-2.8,1.9-4.3,5.6-5.5,8.6c-1.8,4.6-3,9.4-4.1,14.2c-0.5,2.3-1,4.6-1.5,6.9
	c-0.2,1-0.4,2-0.6,3.1c-0.3,1.7-0.3,1.7-2.1,2.2c-4.7,1.1-9.3,2.5-13.8,4.4c-14.6,5.9-27.1,15.4-38,26.7
	c23.8-13.1,50-23.8,77.6-17.8c14.1,3.1,26.9,10.6,37.7,20.1c7.7,6.8,15.1,14.7,20.5,23.5c9.4,15.6,13.6,34,12.1,52.2
	c-0.9,10.5-3.2,20.4-6.3,30.4c-2.7,8.6-7,16.6-11,24.6c9.1-9.4,17.2-19.8,22.4-31.9c1.4-3.2,2.6-6.3,3.7-9.6
	c3.1-0.7,6.3-1.2,9.4-1.6c6.5-0.8,13.1-1.2,19.6,0c-7.8-5-17-7.6-26-9.5c2.8-12.6,2.8-26.2-0.1-38.8c-0.1-0.6-0.3-1.1-0.4-1.7
	c-0.2-1.2,0.3-0.9,1.3-1.1c1.6-0.4,3.3-0.7,4.9-1.1c3.3-0.7,6.7-1.3,10-1.7c5.4-0.8,10.8-1.3,16.2-0.3
	C574.5,136.9,574,136.6,573.5,136.3C573,136,574.5,136.9,573.5,136.3L573.5,136.3z"/>
</svg>
