<?xml version="1.0" encoding="utf-8"?>
<!-- Generator: Adobe Illustrator 21.1.0, SVG Export Plug-In . SVG Version: 6.00 Build 0)  -->
<svg version="1.1" id="Слой_1" xmlns="http://www.w3.org/2000/svg" xmlns:xlink="http://www.w3.org/1999/xlink" x="0px" y="0px"
	 viewBox="0 0 2372.7 1655.9" style="enable-background:new 0 0 2372.7 1655.9;" xml:space="preserve">
<style type="text/css">
	.st0{display:none;fill:#FF6CCD;}
	.st1{display:none;}
	.st2{display:none;fill:#D7ACE0;}
	.st3{fill:#FFFFFF;}
	.st4{display:none;fill:#FEC417;}
	.st5{display:none;fill:#F784AF;}
	.st6{display:none;fill:#FFFFFF;}
	.st7{display:none;fill:#692CBD;}
	.st8{display:none;fill:#D28AFF;}
	.st9{display:none;fill:#FBC2E2;}
	.st10{fill:#F784AF;}
	.st11{display:none;fill:#FFE363;}
	.st12{display:none;fill:#EC869A;}
	.st13{display:none;fill:#FCE9DC;}
	.st14{display:none;fill:#51EEFF;}
	.st15{display:none;fill:#FCF057;}
</style>
<path class="st0" d="M1112.1,42.7c19.4,0,39.6,1.9,60,5.5c142.3,25.3,237.3,112.2,233.6,223.8c-8.1,77.5-50.5,138-106.4,181.8
	c-29.5,23-65.9,41.3-99.6,67.8c9.5-58.5-21.1-91.1-62.5-120.8C995.7,299,933.5,192.5,964.2,119C986.4,65.8,1044.4,42.7,1112.1,42.7
	 M1112.1,28v14.8V28L1112.1,28c-37.6,0-70.4,6.6-97.4,19.7c-30.5,14.7-52.1,36.8-64.1,65.7c-17.1,40.9-9.2,90.6,22.9,143.6
	c31.1,51.3,84.7,105.2,155.1,155.8c40.8,29.3,64.5,57.4,56.5,106.4l-5.1,31.5c-0.3,2.1,2.1,3.5,3.7,2.2l25.1-19.7
	c17-13.3,34.9-24.7,52.3-35.7c16.8-10.6,32.6-20.6,47.3-32.1c30.9-24.1,56-51.8,74.6-82.1c20.7-33.7,33.3-70.6,37.4-109.7l0.1-0.5
	l0-0.5c1-29.6-4.5-58.2-16.2-84.9c-11.3-25.8-28.3-49.6-50.5-70.6c-43.9-41.5-105.8-70.3-179.1-83.3
	C1153.2,29.9,1132.2,27.9,1112.1,28L1112.1,28z"/>
<path class="st1" d="M1658.6,1614.6c-0.3,0.8-0.6,1.7,0.1-0.3c0.2-0.5,0.1-0.4,0.1-0.1c2.5-7.6,5.9-14.9,9.7-22l7.3-209.8l16.7,0.6
	l-7.3,211.3c1.5,3.2,3.2,9.8,3.8,11.5c2.2,6.7,3,14.2,0.9,21c-4.9-3.7-8.4-9.1-10.7-14.7c-1.2,4.8-2.5,9.7-4.6,14.2
	c-1.9-6-2.5-12.5-2.9-18.8c-4.5,6.3-9.6,12.4-15.6,17.4C1656.5,1621.4,1657.5,1618,1658.6,1614.6L1658.6,1614.6z"/>
<path class="st1" d="M1556.9,1597.4c-0.3,0.8-0.6,1.8,0.1-0.3c0.2-0.5,0.1-0.4,0.1-0.2c2.6-8,5.9-15.7,9.7-23.2l7.7-221.5l16.7,0.6
	l-7.7,223.1c1.5,3.4,3.2,10.4,3.8,12.2c2.2,7,3,15,0.9,22.2c-4.9-3.9-8.4-9.6-10.7-15.5c-1.2,5.1-2.5,10.3-4.6,15
	c-1.9-6.4-2.5-13.2-2.9-19.8c-4.6,6.6-9.6,13.1-15.6,18.4C1554.8,1604.6,1555.8,1601,1556.9,1597.4L1556.9,1597.4z"/>
<path class="st2" d="M2222.8,756.2c-0.4-3.1-4.6-3.8-6-1c-34.4,66.1-85.1,98.9-147.3,108.4c-59.7,6.7-104-51.2-155.6-122.5
	c-129.9-179.3-295.1-266.1-409.3-215c-150.1,67.2-212,225.2-208.9,397.8c3.5,198.8,111,375.9,284,435.3
	c205.3,70.5,429.4,48,539.3-114.3C2223.5,1090.6,2245.5,922,2222.8,756.2L2222.8,756.2z"/>
<path class="st3" d="M2004.9,988.5c-1.1-1.8,0.2-4.2,2.3-4.1c51.6,0.5,71.5-28.3,45.3-76.3c-42.2-77.5-175.3-102.8-227-78.3
	c-3.2,1.5-5.8,4.1-7.4,7.3c-29.3,59.8,18.3,285.7,101.6,311c53.3,16.2,69.4-22.6,41.5-69.8c-1.1-1.8,0.2-4.1,2.3-4.1
	C2031.9,1073.5,2037.2,1040.6,2004.9,988.5L2004.9,988.5z"/>
<path class="st4" d="M1362.7,703.3l-102.8-8.6c-1.8-0.2-2.9,2.1-1.5,3.4l74.6,71.8c1,0.9,2.6,0.6,3.1-0.6l28.2-63.2
	C1364.9,704.8,1364,703.4,1362.7,703.3L1362.7,703.3z"/>
<path class="st5" d="M2224.5,719.4c9.9-24,39.8-33,76.1-46.8c41-15.6,40.5-44.1,11.3-73.1c-16.5-16.3-31.5-11.8-57.3,5.8
	c8-47.9-23.4-70.3-54.2-59c-30.5,11.2-30,57.6-16.1,87.2C2195,656.5,2211,685.8,2224.5,719.4L2224.5,719.4z"/>
<path class="st1" d="M1483.3,720.1c-14.7,8-29.9,16.3-39.8,30.4c-4.2,6-7.3,12.7-8.9,19.9c-2.1,9.5-2.1,19.2-0.8,28.8
	c0.5,3.7,1.2,7.4,2,11c-0.1-0.3-0.2-0.7-0.3-1c4.6,12,10.7,24.7,23.1,30.2c6.6,3.1,14.8,2.8,21.9,1.5c9.7-1.8,18.9-5.5,27.9-9.5
	c3.3-1.4,6.4-3,9.7-4.5c-7,7.2-14.8,13.5-23.4,18.6c-6.7,4-14.5,7.3-22.3,8.3c-7.7,0.9-15,0.3-22.3-2.6c-5.8-2.3-11.3-6.4-15.4-11.1
	c-7.4-8.5-13.3-18.9-15.7-30c-4-18.8-2.9-39.9,7.1-56.6C1438,733.5,1460.6,722.8,1483.3,720.1
	C1482.2,720.8,1480.7,720.4,1483.3,720.1L1483.3,720.1z"/>
<ellipse transform="matrix(0.943 -0.3328 0.3328 0.943 -214.2263 516.0138)" class="st6" cx="1399.2" cy="883.4" rx="31" ry="53.5"/>
<path class="st7" d="M1815.3,608.1c-27,0-91.8-16.5-165.1-42.1c-77.2-26.9-141.8-55.9-172.7-77.6c-1.1-0.7-1.7-2-1.7-3.3
	c0-1.3,0.6-2.5,1.7-3.3c2-1.4,5.2-2.1,9.9-2.1c21.3,0,71.5,13.2,103.2,25.1c1.8,0.7,2.8,2.5,2.5,4.3l-1,7l124.4,45.8l1.7-8
	c0.3-1.2,1-2.2,2.1-2.7c0.6-0.3,1.2-0.4,1.8-0.4c0.6,0,1.1,0.1,1.7,0.4c35.3,16.2,74,34.7,93.9,49.7c1.4,1,1.9,2.8,1.4,4.4
	C1818.5,607,1817,608.1,1815.3,608.1L1815.3,608.1z"/>
<path class="st8" d="M1487.5,483.8c19.8,0,69.3,12.7,101.8,24.8l-1.5,10.2l131.8,48.5l2.7-12.5c39.6,18.2,74.8,35.4,93.1,49.2
	c-56.4,0-268.5-71.9-335.5-118.9C1481.2,484.2,1483.9,483.8,1487.5,483.8 M1487.5,475.9v8V475.9L1487.5,475.9
	c-5.7,0-9.4,0.9-12.2,2.8c-2.1,1.5-3.4,3.9-3.4,6.5c0,2.6,1.3,5,3.4,6.5c31.2,21.8,96.1,51,173.7,78.1
	c58.6,20.4,133.2,42.3,166.4,42.3c3.4,0,6.5-2.2,7.5-5.4c1.1-3.2,0-6.8-2.8-8.9c-20.1-15.1-59.1-33.8-94.6-50.1
	c-1.1-0.5-2.2-0.7-3.3-0.7c-1.2,0-2.4,0.3-3.6,0.8c-2.2,1.1-3.7,3.1-4.2,5.5l-0.7,3.5l-117.1-43.1l0.6-3.8c0.5-3.7-1.6-7.3-5.1-8.6
	C1560,489.2,1509.2,475.9,1487.5,475.9L1487.5,475.9z"/>
<path class="st7" d="M1712.3,553.9c-0.5,0-0.9-0.1-1.4-0.3L1600,512c-1.7-0.6-2.8-2.4-2.6-4.2l39.4-342.3c0.1-1.2,0.8-2.3,1.9-3
	c0.6-0.4,1.3-0.6,2-0.6c0.5,0,1,0.1,1.5,0.3l192.3,75.4c2,0.8,3.1,3.1,2.3,5.2L1716,551.4C1715.4,553,1713.9,553.9,1712.3,553.9
	L1712.3,553.9z"/>
<path class="st8" d="M1640.8,166l192.3,75.4l-120.8,308.6l-110.9-41.7L1640.8,166 M1640.8,158c-1.4,0-2.8,0.4-4.1,1.1
	c-2.1,1.3-3.5,3.5-3.8,5.9l-39.4,342.3c-0.4,3.6,1.7,7.1,5.1,8.4l110.9,41.7c0.9,0.3,1.9,0.5,2.8,0.5c3.2,0,6.2-1.9,7.4-5.1
	l120.8-308.6c1.6-4.1-0.4-8.7-4.5-10.3l-192.3-75.4C1642.8,158.2,1641.8,158,1640.8,158L1640.8,158z"/>
<path class="st5" d="M1194,227.3c-5.2-65.8,35.4-96.5,77.4-77.4c47.9,21.7,43.2,88.5,5.9,144.5c-14.4,21.6-30.7,54.1-44.7,92.4
	c-10.6-29.9-41.1-48.5-82.5-61c-52.7-14.7-75.2-43.3-53.8-84.1C1117.1,202.1,1158.4,199.4,1194,227.3L1194,227.3z"/>
<path class="st1" d="M679.9,1616.8c0.2,0.8,0.5,1.7-0.1-0.3c-0.1-0.5-0.1-0.4,0-0.2c-2.3-7.7-5.4-15.1-8.9-22.3v-209.9h-16.7v211.4
	c-1.6,3.2-3.6,9.7-4.2,11.4c-2.4,6.6-3.5,14.1-1.7,21c5.1-3.5,8.8-8.8,11.2-14.3c1,4.8,2.1,9.8,4.1,14.3c2.1-6,2.9-12.4,3.6-18.7
	c4.3,6.4,9.2,12.7,15,17.9C681.7,1623.7,680.9,1620.2,679.9,1616.8L679.9,1616.8z"/>
<path class="st1" d="M782.1,1603.1c0.2,0.8,0.5,1.8-0.1-0.3c-0.1-0.5-0.1-0.4,0-0.2c-2.3-8.1-5.4-15.9-8.9-23.5v-221.6h-16.7v223.2
	c-1.6,3.3-3.6,10.3-4.2,12c-2.4,7-3.5,14.9-1.7,22.2c5.1-3.7,8.8-9.3,11.2-15.1c1,5.1,2.1,10.3,4.1,15.1c2.1-6.3,2.9-13.1,3.6-19.7
	c4.3,6.8,9.2,13.5,15,18.9C784,1610.4,783.1,1606.7,782.1,1603.1L782.1,1603.1z"/>
<path class="st9" d="M145.8,739.3c0.5-3.1,4.7-3.6,6-0.8c32.1,67.2,81.6,101.8,143.4,113.4c59.5,8.7,105.7-47.5,159.8-117
	c136.1-174.7,304.1-255.7,416.5-200.7c147.7,72.3,204,232.4,195,404.8c-10.4,198.6-124,371.8-298.9,425.2
	c-207.6,63.3-430.8,33-535-132.9C133.5,1073.5,117.3,904.3,145.8,739.3L145.8,739.3z"/>
<path class="st10" d="M355.5,979.1c1.2-1.8-0.1-4.2-2.2-4.2c-51.6-1.3-70.5-30.7-42.7-77.8c44.9-76,178.8-96.6,229.6-70.4
	c3.2,1.6,5.7,4.3,7.1,7.6c27.2,60.7-28.2,284.9-112.3,307.3c-53.8,14.4-68.6-24.9-39-71.2c1.1-1.8-0.1-4.1-2.2-4.2
	C325.6,1063.1,321.4,1030.1,355.5,979.1L355.5,979.1z"/>
<path class="st1" d="M914,844c1-2.9,1.8-6,2.4-9c0.2-1,0-4.7,1.2-4.6c2.6,0.1,5.3,0.2,7.9,0.4c5.3,0.2,10.6,0.5,15.8,0.7
	c-4.8-1.2-9.6-2.4-14.4-3.6c-2.7-0.7-5.5-1.4-8.2-2c-0.2-0.1-1.1-0.1-1.2-0.3c0.2-3.6,0-7.3-0.3-10.9c-0.3-3.2-0.8-6.5-1.5-9.6
	c-0.2-0.8-1.6-4.5-0.9-5.1c1.9-1.5,3.8-2.9,5.8-4.4c4.2-3.2,8.3-6.3,12.5-9.5c-6.6,3.2-13.3,6.3-19.9,9.5c-2.2-6.6-5-12.9-8.4-18.9
	c-1.7-2.9-3.5-5.8-5.4-8.6c-0.6-0.9-3.8-4.2-3.1-5c3.8-4,7.7-8,11.5-12c-4.9,2.8-9.8,5.6-14.8,8.4c-0.3,0.2-5.8-6.3-6.5-6.9
	c-2.7-2.7-5.5-5.2-8.3-7.6c-4.7-4-9.9-7.4-15.2-10.6c24.4,23.1,46,53.7,45.6,88.8c-0.2,17.2-7.2,34.4-22.6,43.3
	c-14.4,8.3-31.4,8.1-47.4,6.5c9.3,3,18.8,5,28.6,4.7c2.6-0.1,5.2-0.3,7.8-0.7c0.7-0.1,5.2-1.4,5.6-1c1,1.2,2,2.4,3,3.5
	c6.2,7.3,12.4,14.7,18.6,22c-5.4-9.1-10.8-18.3-16.2-27.4c3.7-1.4,7.1-3.3,10.3-5.5c0.9-0.6,7.4-6.5,7.5-6.4c2.5,1.6,5,3.2,7.5,4.8
	c6,3.8,12,7.6,18,11.5c-4.7-4.3-9.4-8.6-14.2-12.9c-2.4-2.2-4.9-4.4-7.3-6.7c-1.4-1.3,0.1-1.9,1.1-3.5
	C910.8,851.7,912.6,847.9,914,844C915.5,839.6,912.2,849.1,914,844L914,844z"/>
<path class="st4" d="M1007.2,716.3l103-5c1.8-0.1,2.8,2.2,1.4,3.4l-77,69.1c-1,0.9-2.6,0.5-3.1-0.7l-26-64.1
	C1005,717.8,1005.8,716.4,1007.2,716.3L1007.2,716.3z"/>
<path class="st5" d="M145.4,702.5c-9.1-24.3-38.6-34.3-74.4-49.4c-40.4-17-39-45.5-8.8-73.4c17-15.8,31.9-10.7,57.1,7.8
	c-6.3-48.2,25.8-69.4,56.2-57.1c30.1,12.2,28,58.6,13.1,87.8C177.1,640.7,160,669.4,145.4,702.5L145.4,702.5z"/>
<ellipse transform="matrix(5.329886e-02 -0.9986 0.9986 5.329886e-02 20.2519 1814.3535)" class="st6" cx="967" cy="896.5" rx="53.5" ry="31"/>
<path class="st11" d="M690.8,732.6c-16.3,0-29.6-20.3-29.6-45.3s13.3-45.3,29.6-45.3s29.6,20.3,29.6,45.3S707.1,732.6,690.8,732.6z"
	/>
<path class="st12" d="M690.8,643.8c15.3,0,27.7,19.5,27.7,43.5s-12.4,43.5-27.7,43.5S663,711.3,663,687.3S675.4,643.8,690.8,643.8
	 M690.8,640.2c-8.7,0-16.8,5.1-22.7,14.4c-5.6,8.8-8.7,20.4-8.7,32.7s3.1,23.9,8.7,32.7c5.9,9.3,14,14.4,22.7,14.4
	s16.8-5.1,22.7-14.4c5.6-8.8,8.7-20.4,8.7-32.7s-3.1-23.9-8.7-32.7C707.5,645.3,699.5,640.2,690.8,640.2z"/>
<path class="st11" d="M647.3,673.4c-25,0-45.3-13.3-45.3-29.6s20.3-29.6,45.3-29.6s45.3,13.3,45.3,29.6S672.3,673.4,647.3,673.4z"/>
<path class="st12" d="M647.3,616.1c24,0,43.5,12.4,43.5,27.7c0,15.3-19.5,27.7-43.5,27.7c-24,0-43.5-12.4-43.5-27.7
	C603.8,628.5,623.3,616.1,647.3,616.1 M647.3,612.4c-12.3,0-23.9,3.1-32.7,8.7c-9.3,5.9-14.4,14-14.4,22.7s5.1,16.8,14.4,22.7
	c8.8,5.6,20.4,8.7,32.7,8.7s23.9-3.1,32.7-8.7c9.3-5.9,14.4-14,14.4-22.7s-5.1-16.8-14.4-22.7C671.2,615.5,659.6,612.4,647.3,612.4z
	"/>
<path class="st11" d="M690.8,645.7c-16.3,0-29.6-20.3-29.6-45.3s13.3-45.3,29.6-45.3s29.6,20.3,29.6,45.3S707.1,645.7,690.8,645.7z"
	/>
<path class="st12" d="M690.8,556.9c15.3,0,27.7,19.5,27.7,43.5c0,24-12.4,43.5-27.7,43.5S663,624.4,663,600.4
	S675.4,556.9,690.8,556.9 M690.8,553.2c-8.7,0-16.8,5.1-22.7,14.4c-5.6,8.8-8.7,20.4-8.7,32.7s3.1,23.9,8.7,32.7
	c5.9,9.3,14,14.4,22.7,14.4s16.8-5.1,22.7-14.4c5.6-8.8,8.7-20.4,8.7-32.7s-3.1-23.9-8.7-32.7C707.5,558.4,699.5,553.2,690.8,553.2z
	"/>
<path class="st11" d="M734.2,673.4c-25,0-45.3-13.3-45.3-29.6s20.3-29.6,45.3-29.6s45.3,13.3,45.3,29.6S759.2,673.4,734.2,673.4z"/>
<path class="st12" d="M734.2,616.1c24,0,43.5,12.4,43.5,27.7c0,15.3-19.5,27.7-43.5,27.7s-43.5-12.4-43.5-27.7
	S710.2,616.1,734.2,616.1 M734.2,612.4c-12.3,0-23.9,3.1-32.7,8.7c-9.3,5.9-14.4,14-14.4,22.7s5.1,16.8,14.4,22.7
	c8.8,5.6,20.4,8.7,32.7,8.7s23.9-3.1,32.7-8.7c9.3-5.9,14.4-14,14.4-22.7s-5.1-16.8-14.4-22.7C758.1,615.5,746.5,612.4,734.2,612.4z
	"/>
<path class="st11" d="M690.8,675.9c-17.7,0-32-14.4-32-32s14.4-32,32-32s32,14.4,32,32S708.4,675.9,690.8,675.9z"/>
<path class="st12" d="M690.8,613.7c16.7,0,30.2,13.5,30.2,30.2s-13.5,30.2-30.2,30.2s-30.2-13.5-30.2-30.2S674.1,613.7,690.8,613.7
	 M690.8,610c-18.7,0-33.9,15.2-33.9,33.9s15.2,33.9,33.9,33.9s33.9-15.2,33.9-33.9S709.4,610,690.8,610z"/>
<path class="st11" d="M725.4,695.7c-8.9,0-19.1-4.9-27.3-13.1c-6.3-6.3-10.7-13.9-12.4-21.3c-1.7-7.6-0.3-14.2,4-18.5
	c3.1-3.1,7.4-4.7,12.5-4.7c8.9,0,19.1,4.9,27.3,13.1c13.3,13.3,17,31.1,8.3,39.8C734.8,694.1,730.5,695.7,725.4,695.7
	C725.4,695.7,725.4,695.7,725.4,695.7L725.4,695.7z"/>
<path class="st12" d="M702.3,639.5c8.2,0,18.1,4.5,26.3,12.7c12.7,12.7,16.5,29.7,8.3,37.8c-2.9,2.9-7,4.3-11.5,4.3
	c-8.2,0-18.1-4.5-26.3-12.7c-12.7-12.7-16.5-29.7-8.3-37.8C693.7,640.9,697.7,639.5,702.3,639.5 M702.3,636.8
	c-5.5,0-10.1,1.8-13.5,5.1c-4.6,4.6-6.2,11.6-4.4,19.7c1.7,7.7,6.2,15.5,12.8,22c8.4,8.4,19,13.5,28.2,13.5c5.5,0,10.1-1.8,13.5-5.1
	c4.6-4.6,6.2-11.6,4.4-19.7c-1.7-7.7-6.2-15.5-12.8-22C722.1,641.8,711.5,636.8,702.3,636.8z"/>
<path class="st11" d="M656.1,695.7c-5.1,0-9.4-1.6-12.5-4.7c-8.7-8.7-4.9-26.5,8.3-39.8c8.2-8.2,18.4-13.1,27.3-13.1
	c5.1,0,9.4,1.6,12.5,4.7c8.7,8.7,4.9,26.5-8.3,39.8C675.2,690.8,665,695.7,656.1,695.7L656.1,695.7L656.1,695.7z"/>
<path class="st12" d="M679.2,639.5c4.6,0,8.6,1.4,11.5,4.3c8.1,8.1,4.4,25.1-8.3,37.8c-8.2,8.2-18.1,12.7-26.3,12.7
	c-4.6,0-8.6-1.4-11.5-4.3c-8.1-8.1-4.4-25.1,8.3-37.8C661.1,644,671,639.5,679.2,639.5 M679.2,636.8c-9.3,0-19.8,5-28.2,13.5
	c-6.5,6.5-11.1,14.3-12.8,22c-1.8,8.1-0.2,15.1,4.4,19.7c3.3,3.3,8,5.1,13.5,5.1c9.3,0,19.8-5,28.2-13.5c6.5-6.5,11.1-14.3,12.8-22
	c1.8-8.1,0.2-15.1-4.4-19.7C689.4,638.5,684.7,636.8,679.2,636.8L679.2,636.8z"/>
<path class="st11" d="M679.2,649.5c-8.9,0-19.1-4.9-27.3-13.1c-6.3-6.3-10.7-13.9-12.4-21.3c-1.7-7.6-0.3-14.2,4-18.5
	c3.1-3.1,7.4-4.7,12.5-4.7c8.9,0,19.1,4.9,27.3,13.1c13.3,13.3,17,31.1,8.3,39.8C688.6,647.9,684.3,649.5,679.2,649.5L679.2,649.5
	L679.2,649.5z"/>
<path class="st12" d="M656.1,593.4c8.2,0,18.1,4.5,26.3,12.7c12.7,12.7,16.5,29.7,8.3,37.8c-2.9,2.9-7,4.3-11.5,4.3
	c-8.2,0-18.1-4.5-26.3-12.7c-12.7-12.7-16.5-29.7-8.3-37.8C647.5,594.8,651.5,593.4,656.1,593.4 M656.1,590.6
	c-5.5,0-10.1,1.8-13.5,5.1c-4.6,4.6-6.2,11.6-4.4,19.7c1.7,7.7,6.2,15.5,12.8,22c8.4,8.4,19,13.5,28.2,13.5c5.5,0,10.1-1.8,13.5-5.1
	c4.6-4.6,6.2-11.6,4.4-19.7c-1.7-7.7-6.2-15.5-12.8-22C675.9,595.6,665.4,590.6,656.1,590.6z"/>
<path class="st11" d="M702.3,649.5c-5.1,0-9.4-1.6-12.5-4.7c-4.3-4.3-5.7-10.8-4-18.5c1.6-7.4,6-15,12.4-21.3
	c8.2-8.2,18.4-13.1,27.3-13.1c5.1,0,9.4,1.6,12.5,4.7c4.3,4.3,5.7,10.8,4,18.5c-1.6,7.4-6,15-12.4,21.3
	C721.4,644.7,711.2,649.5,702.3,649.5L702.3,649.5L702.3,649.5z"/>
<path class="st12" d="M725.4,593.4c4.6,0,8.6,1.4,11.5,4.3c8.1,8.1,4.4,25.1-8.3,37.8c-8.2,8.2-18.1,12.7-26.3,12.7
	c-4.6,0-8.6-1.4-11.5-4.3c-8.1-8.1-4.4-25.1,8.3-37.8C707.3,597.9,717.2,593.4,725.4,593.4 M725.4,590.6c-9.3,0-19.8,5-28.2,13.5
	c-6.5,6.5-11.1,14.3-12.8,22c-1.8,8.1-0.2,15.1,4.4,19.7c3.3,3.3,8,5.1,13.5,5.1c9.3,0,19.8-5,28.2-13.5c6.5-6.5,11.1-14.3,12.8-22
	c1.8-8.1,0.2-15.1-4.4-19.7C735.5,592.4,730.9,590.6,725.4,590.6L725.4,590.6z"/>
<path class="st11" d="M690.8,667.9c-6.4,0-12.5-2.5-17-7.1c-4.5-4.5-7.1-10.6-7.1-17s2.5-12.5,7.1-17c4.5-4.5,10.6-7.1,17-7.1
	c6.4,0,12.5,2.5,17,7.1c4.5,4.5,7.1,10.6,7.1,17s-2.5,12.5-7.1,17C703.2,665.4,697.2,667.9,690.8,667.9z"/>
<path class="st12" d="M690.8,621.2c5.8,0,11.6,2.2,16,6.6c8.9,8.9,8.9,23.2,0,32.1c-4.4,4.4-10.2,6.6-16,6.6s-11.6-2.2-16-6.6
	c-8.9-8.9-8.9-23.2,0-32.1C679.1,623.4,684.9,621.2,690.8,621.2 M690.8,618.4c-6.8,0-13.2,2.6-18,7.5c-9.9,9.9-9.9,26.1,0,36
	c4.8,4.8,11.2,7.5,18,7.5s13.2-2.6,18-7.5c9.9-9.9,9.9-26.1,0-36C703.9,621,697.6,618.4,690.8,618.4z"/>
<path class="st11" d="M709.3,656.5c-10.7,0-19.4-5.7-19.4-12.7s8.7-12.7,19.4-12.7s19.4,5.7,19.4,12.7S720,656.5,709.3,656.5z"/>
<path class="st12" d="M709.3,632c10.3,0,18.6,5.3,18.6,11.9c0,6.6-8.3,11.9-18.6,11.9s-18.6-5.3-18.6-11.9
	C690.7,637.3,699.1,632,709.3,632 M709.3,630.4c-11.3,0-20.2,5.9-20.2,13.5s8.9,13.5,20.2,13.5c11.3,0,20.2-5.9,20.2-13.5
	S720.7,630.4,709.3,630.4z"/>
<path class="st11" d="M690.8,681.8c-7,0-12.7-8.7-12.7-19.4s5.7-19.4,12.7-19.4c7,0,12.7,8.7,12.7,19.4S697.7,681.8,690.8,681.8z"/>
<path class="st12" d="M690.8,643.8c6.6,0,11.9,8.3,11.9,18.6s-5.3,18.6-11.9,18.6c-6.6,0-11.9-8.3-11.9-18.6
	S684.2,643.8,690.8,643.8 M690.8,642.3c-7.5,0-13.5,8.9-13.5,20.2s5.9,20.2,13.5,20.2s13.5-8.9,13.5-20.2S698.3,642.3,690.8,642.3z"
	/>
<path class="st11" d="M672.2,656.5c-10.7,0-19.4-5.7-19.4-12.7s8.7-12.7,19.4-12.7c10.7,0,19.4,5.7,19.4,12.7
	S682.8,656.5,672.2,656.5z"/>
<path class="st12" d="M672.2,632c10.3,0,18.6,5.3,18.6,11.9c0,6.6-8.3,11.9-18.6,11.9s-18.6-5.3-18.6-11.9
	C653.6,637.3,661.9,632,672.2,632 M672.2,630.4c-11.3,0-20.2,5.9-20.2,13.5s8.9,13.5,20.2,13.5c11.3,0,20.2-5.9,20.2-13.5
	S683.5,630.4,672.2,630.4z"/>
<path class="st11" d="M690.8,644.6c-7,0-12.7-8.7-12.7-19.4c0-10.7,5.7-19.4,12.7-19.4c7,0,12.7,8.7,12.7,19.4
	C703.4,635.9,697.7,644.6,690.8,644.6z"/>
<path class="st12" d="M690.8,606.7c6.6,0,11.9,8.3,11.9,18.6s-5.3,18.6-11.9,18.6c-6.6,0-11.9-8.3-11.9-18.6
	S684.2,606.7,690.8,606.7 M690.8,605.1c-7.5,0-13.5,8.9-13.5,20.2s5.9,20.2,13.5,20.2s13.5-8.9,13.5-20.2
	C704.2,613.9,698.3,605.1,690.8,605.1z"/>
<path class="st11" d="M690.8,657.6c-7.6,0-13.7-6.2-13.7-13.7s6.2-13.7,13.7-13.7s13.7,6.2,13.7,13.7S698.3,657.6,690.8,657.6z"/>
<path class="st12" d="M690.8,630.9c7.1,0,12.9,5.8,12.9,12.9c0,7.1-5.8,12.9-12.9,12.9s-12.9-5.8-12.9-12.9
	C677.8,636.7,683.6,630.9,690.8,630.9 M690.8,629.3c-8,0-14.5,6.5-14.5,14.5s6.5,14.5,14.5,14.5s14.5-6.5,14.5-14.5
	S698.7,629.3,690.8,629.3z"/>
<path class="st11" d="M864.9,731.8c-16.3,0-29.6-20.3-29.6-45.3s13.3-45.3,29.6-45.3s29.6,20.3,29.6,45.3S881.2,731.8,864.9,731.8z"
	/>
<path class="st12" d="M864.9,643.1c15.3,0,27.7,19.5,27.7,43.5S880.2,730,864.9,730s-27.7-19.5-27.7-43.5S849.6,643.1,864.9,643.1
	 M864.9,639.4c-8.7,0-16.8,5.1-22.7,14.4c-5.6,8.8-8.7,20.4-8.7,32.7s3.1,23.9,8.7,32.7c5.9,9.3,14,14.4,22.7,14.4
	s16.8-5.1,22.7-14.4c5.6-8.8,8.7-20.4,8.7-32.7s-3.1-23.9-8.7-32.7C881.7,644.5,873.6,639.4,864.9,639.4z"/>
<path class="st11" d="M821.5,672.7c-25,0-45.3-13.3-45.3-29.6s20.3-29.6,45.3-29.6s45.3,13.3,45.3,29.6S846.5,672.7,821.5,672.7z"/>
<path class="st12" d="M821.5,615.3c24,0,43.5,12.4,43.5,27.7s-19.5,27.7-43.5,27.7S778,658.4,778,643.1S797.5,615.3,821.5,615.3
	 M821.5,611.7c-12.3,0-23.9,3.1-32.7,8.7c-9.3,5.9-14.4,14-14.4,22.7s5.1,16.8,14.4,22.7c8.8,5.6,20.4,8.7,32.7,8.7
	s23.9-3.1,32.7-8.7c9.3-5.9,14.4-14,14.4-22.7s-5.1-16.8-14.4-22.7C845.4,614.7,833.8,611.7,821.5,611.7z"/>
<path class="st11" d="M864.9,644.9c-16.3,0-29.6-20.3-29.6-45.3s13.3-45.3,29.6-45.3s29.6,20.3,29.6,45.3S881.2,644.9,864.9,644.9z"
	/>
<path class="st12" d="M864.9,556.2c15.3,0,27.7,19.5,27.7,43.5s-12.4,43.5-27.7,43.5s-27.7-19.5-27.7-43.5S849.6,556.2,864.9,556.2
	 M864.9,552.5c-8.7,0-16.8,5.1-22.7,14.4c-5.6,8.8-8.7,20.4-8.7,32.7s3.1,23.9,8.7,32.7c5.9,9.3,14,14.4,22.7,14.4
	s16.8-5.1,22.7-14.4c5.6-8.8,8.7-20.4,8.7-32.7s-3.1-23.9-8.7-32.7C881.7,557.6,873.6,552.5,864.9,552.5z"/>
<path class="st11" d="M908.4,672.7c-25,0-45.3-13.3-45.3-29.6s20.3-29.6,45.3-29.6s45.3,13.3,45.3,29.6S933.4,672.7,908.4,672.7z"/>
<path class="st12" d="M908.4,615.3c24,0,43.5,12.4,43.5,27.7s-19.5,27.7-43.5,27.7c-24,0-43.5-12.4-43.5-27.7
	S884.4,615.3,908.4,615.3 M908.4,611.7c-12.3,0-23.9,3.1-32.7,8.7c-9.3,5.9-14.4,14-14.4,22.7s5.1,16.8,14.4,22.7
	c8.8,5.6,20.4,8.7,32.7,8.7s23.9-3.1,32.7-8.7c9.3-5.9,14.4-14,14.4-22.7s-5.1-16.8-14.4-22.7C932.3,614.7,920.7,611.7,908.4,611.7z
	"/>
<path class="st11" d="M864.9,675.1c-17.7,0-32-14.4-32-32s14.4-32,32-32s32,14.4,32,32S882.6,675.1,864.9,675.1z"/>
<path class="st12" d="M864.9,612.9c16.7,0,30.2,13.5,30.2,30.2c0,16.7-13.5,30.2-30.2,30.2c-16.7,0-30.2-13.5-30.2-30.2
	C834.7,626.4,848.3,612.9,864.9,612.9 M864.9,609.2c-18.7,0-33.9,15.2-33.9,33.9s15.2,33.9,33.9,33.9s33.9-15.2,33.9-33.9
	S883.6,609.2,864.9,609.2z"/>
<path class="st11" d="M899.6,694.9c-8.9,0-19.1-4.9-27.3-13.1c-13.3-13.3-17-31.1-8.3-39.8c3.1-3.1,7.4-4.7,12.5-4.7
	c8.9,0,19.1,4.9,27.3,13.1c13.3,13.3,17,31.1,8.3,39.8C909,693.3,904.7,694.9,899.6,694.9L899.6,694.9L899.6,694.9z"/>
<path class="st12" d="M876.5,638.8c8.2,0,18.1,4.5,26.3,12.7c12.7,12.7,16.5,29.7,8.3,37.8c-2.9,2.9-7,4.3-11.5,4.3
	c-8.2,0-18.1-4.5-26.3-12.7c-12.7-12.7-16.5-29.7-8.3-37.8C867.8,640.2,871.9,638.8,876.5,638.8 M876.5,636
	c-5.5,0-10.1,1.8-13.5,5.1c-4.6,4.6-6.2,11.6-4.4,19.7c1.7,7.7,6.2,15.5,12.8,22c8.4,8.4,19,13.5,28.2,13.5c5.5,0,10.1-1.8,13.5-5.1
	c4.6-4.6,6.2-11.6,4.4-19.7c-1.7-7.7-6.2-15.5-12.8-22C896.3,641,885.7,636,876.5,636z"/>
<path class="st11" d="M830.3,694.9c-5.1,0-9.4-1.6-12.5-4.7c-8.7-8.7-4.9-26.5,8.3-39.8c8.2-8.2,18.4-13.1,27.3-13.1
	c5.1,0,9.4,1.6,12.5,4.7c4.3,4.3,5.7,10.8,4,18.5c-1.6,7.4-6,15-12.4,21.3C849.4,690.1,839.2,694.9,830.3,694.9
	C830.3,694.9,830.3,694.9,830.3,694.9L830.3,694.9z"/>
<path class="st12" d="M853.4,638.8c4.6,0,8.6,1.4,11.5,4.3c8.1,8.1,4.4,25.1-8.3,37.8c-8.2,8.2-18.1,12.7-26.3,12.7
	c-4.6,0-8.6-1.4-11.5-4.3c-8.1-8.1-4.4-25.1,8.3-37.8C835.3,643.3,845.2,638.8,853.4,638.8 M853.4,636c-9.3,0-19.8,5-28.2,13.5
	c-6.5,6.5-11.1,14.3-12.8,22c-1.8,8.1-0.2,15.1,4.4,19.7c3.3,3.3,8,5.1,13.5,5.1c9.3,0,19.8-5,28.2-13.5c6.5-6.5,11.1-14.3,12.8-22
	c1.8-8.1,0.2-15.1-4.4-19.7C863.5,637.8,858.9,636,853.4,636L853.4,636z"/>
<path class="st11" d="M853.4,648.8c-8.9,0-19.1-4.9-27.3-13.1c-13.3-13.3-17-31.1-8.3-39.8c3.1-3.1,7.4-4.7,12.5-4.7
	c8.9,0,19.1,4.9,27.3,13.1c6.3,6.3,10.7,13.9,12.4,21.3c1.7,7.6,0.3,14.2-4,18.5C862.8,647.2,858.5,648.8,853.4,648.8L853.4,648.8
	L853.4,648.8z"/>
<path class="st12" d="M830.3,592.6c8.2,0,18.1,4.5,26.3,12.7c12.7,12.7,16.5,29.7,8.3,37.8c-2.9,2.9-7,4.3-11.5,4.3
	c-8.2,0-18.1-4.5-26.3-12.7c-12.7-12.7-16.5-29.7-8.3-37.8C821.7,594,825.7,592.6,830.3,592.6 M830.3,589.9
	c-5.5,0-10.1,1.8-13.5,5.1c-4.6,4.6-6.2,11.6-4.4,19.7c1.7,7.7,6.2,15.5,12.8,22c8.4,8.4,19,13.5,28.2,13.5c5.5,0,10.1-1.8,13.5-5.1
	c4.6-4.6,6.2-11.6,4.4-19.7c-1.7-7.7-6.2-15.5-12.8-22C850.1,594.9,839.6,589.9,830.3,589.9z"/>
<path class="st11" d="M876.5,648.8c-5.1,0-9.4-1.6-12.5-4.7c-8.7-8.7-4.9-26.5,8.3-39.8c8.2-8.2,18.4-13.1,27.3-13.1
	c5.1,0,9.4,1.6,12.5,4.7c8.7,8.7,4.9,26.5-8.3,39.8C895.5,643.9,885.3,648.8,876.5,648.8L876.5,648.8L876.5,648.8z"/>
<path class="st12" d="M899.6,592.6c4.6,0,8.6,1.4,11.5,4.3c8.1,8.1,4.4,25.1-8.3,37.8c-8.2,8.2-18.1,12.7-26.3,12.7
	c-4.6,0-8.6-1.4-11.5-4.3c-8.1-8.1-4.4-25.1,8.3-37.8C881.5,597.1,891.4,592.6,899.6,592.6 M899.6,589.9c-9.3,0-19.8,5-28.2,13.5
	c-6.5,6.5-11.1,14.3-12.8,22c-1.8,8.1-0.2,15.1,4.4,19.7c3.3,3.3,8,5.1,13.5,5.1c9.3,0,19.8-5,28.2-13.5c6.5-6.5,11.1-14.3,12.8-22
	c1.8-8.1,0.2-15.1-4.4-19.7C909.7,591.6,905,589.9,899.6,589.9L899.6,589.9z"/>
<path class="st11" d="M864.9,667.2c-6.4,0-12.5-2.5-17-7.1c-4.5-4.5-7.1-10.6-7.1-17s2.5-12.5,7.1-17c4.5-4.5,10.6-7.1,17-7.1
	c6.4,0,12.5,2.5,17,7.1c4.5,4.5,7.1,10.6,7.1,17s-2.5,12.5-7.1,17C877.4,664.7,871.4,667.2,864.9,667.2z"/>
<path class="st12" d="M864.9,620.4c5.8,0,11.6,2.2,16,6.6c8.9,8.9,8.9,23.2,0,32.1c-4.4,4.4-10.2,6.6-16,6.6s-11.6-2.2-16-6.6
	c-8.9-8.9-8.9-23.2,0-32.1C853.3,622.6,859.1,620.4,864.9,620.4 M864.9,617.6c-6.8,0-13.2,2.6-18,7.5c-9.9,9.9-9.9,26.1,0,36
	c4.8,4.8,11.2,7.5,18,7.5s13.2-2.6,18-7.5s7.5-11.2,7.5-18s-2.6-13.2-7.5-18S871.7,617.6,864.9,617.6z"/>
<path class="st11" d="M883.5,655.8c-10.7,0-19.4-5.7-19.4-12.7s8.7-12.7,19.4-12.7c10.7,0,19.4,5.7,19.4,12.7
	S894.2,655.8,883.5,655.8z"/>
<path class="st12" d="M883.5,631.2c10.3,0,18.6,5.3,18.6,11.9s-8.3,11.9-18.6,11.9s-18.6-5.3-18.6-11.9S873.3,631.2,883.5,631.2
	 M883.5,629.6c-11.3,0-20.2,5.9-20.2,13.5s8.9,13.5,20.2,13.5s20.2-5.9,20.2-13.5S894.8,629.6,883.5,629.6z"/>
<path class="st11" d="M864.9,681.1c-7,0-12.7-8.7-12.7-19.4c0-10.7,5.7-19.4,12.7-19.4c7,0,12.7,8.7,12.7,19.4
	C877.6,672.4,871.9,681.1,864.9,681.1z"/>
<path class="st12" d="M864.9,643.1c6.6,0,11.9,8.3,11.9,18.6s-5.3,18.6-11.9,18.6s-11.9-8.3-11.9-18.6S858.4,643.1,864.9,643.1
	 M864.9,641.5c-7.5,0-13.5,8.9-13.5,20.2c0,11.3,5.9,20.2,13.5,20.2s13.5-8.9,13.5-20.2C878.4,650.4,872.5,641.5,864.9,641.5z"/>
<path class="st11" d="M846.3,655.8c-10.7,0-19.4-5.7-19.4-12.7s8.7-12.7,19.4-12.7s19.4,5.7,19.4,12.7S857,655.8,846.3,655.8z"/>
<path class="st12" d="M846.3,631.2c10.3,0,18.6,5.3,18.6,11.9s-8.3,11.9-18.6,11.9s-18.6-5.3-18.6-11.9S836.1,631.2,846.3,631.2
	 M846.3,629.6c-11.3,0-20.2,5.9-20.2,13.5s8.9,13.5,20.2,13.5s20.2-5.9,20.2-13.5S857.6,629.6,846.3,629.6z"/>
<path class="st11" d="M864.9,643.9c-7,0-12.7-8.7-12.7-19.4c0-10.7,5.7-19.4,12.7-19.4c7,0,12.7,8.7,12.7,19.4
	C877.6,635.2,871.9,643.9,864.9,643.9z"/>
<path class="st12" d="M864.9,605.9c6.6,0,11.9,8.3,11.9,18.6s-5.3,18.6-11.9,18.6s-11.9-8.3-11.9-18.6S858.4,605.9,864.9,605.9
	 M864.9,604.3c-7.5,0-13.5,8.9-13.5,20.2c0,11.3,5.9,20.2,13.5,20.2s13.5-8.9,13.5-20.2C878.4,613.2,872.5,604.3,864.9,604.3z"/>
<path class="st11" d="M864.9,656.8c-7.6,0-13.7-6.2-13.7-13.7s6.2-13.7,13.7-13.7s13.7,6.2,13.7,13.7S872.5,656.8,864.9,656.8z"/>
<path class="st12" d="M864.9,630.2c7.1,0,12.9,5.8,12.9,12.9s-5.8,12.9-12.9,12.9s-12.9-5.8-12.9-12.9S857.8,630.2,864.9,630.2
	 M864.9,628.6c-8,0-14.5,6.5-14.5,14.5s6.5,14.5,14.5,14.5s14.5-6.5,14.5-14.5S872.9,628.6,864.9,628.6z"/>
<path class="st13" d="M624.1,738.5c-8.7,0-20.9-21.1-28.5-41.9c-2.3-6.4-4.3-12.8-5.7-18.8c-2.5,5.7-5.5,11.6-8.9,17.5
	c-12.4,21.4-26.5,36.4-34.3,36.4c-1,0-1.9-0.2-2.8-0.7c-3.7-2.1-4.2-8.5-1.5-18.4c2.5-9.1,7.4-20.3,13.9-31.4
	c3.4-5.9,7-11.5,10.7-16.4c-5.9,1.8-12.4,3.3-19.1,4.5c-9.5,1.7-18.8,2.6-26.9,2.6c-8.5,0-23-1-24.3-8c-1.6-9.2,22-18.3,46.2-22.6
	c6.7-1.2,13.3-2,19.5-2.3c-5.2-3.4-10.5-7.4-15.7-11.8c-9.9-8.3-18.3-17.1-23.8-24.8c-6-8.4-7.7-14.6-4.9-17.8
	c1.2-1.4,3-2.1,5.4-2.1c8.5,0,25.3,9.2,41.6,23c5.2,4.4,10.1,8.9,14.3,13.4c-0.7-6.1-1.1-12.8-1.1-19.6c0-24.6,4.9-49.4,14.2-49.4
	c9.3,0,14.2,24.9,14.2,49.4c0,9.6-0.8,18.9-2.1,26.8c6.2-5.2,13.9-10.5,22.2-15.3c16.7-9.6,32.8-15.6,42.2-15.6
	c3.9,0,6.5,1.1,7.7,3.2c2.1,3.7-0.6,9.5-8,16.7c-6.7,6.6-16.6,13.9-27.7,20.3c-5.9,3.4-11.8,6.4-17.5,8.9c6,1.4,12.4,3.4,18.8,5.7
	c23.1,8.4,44.8,21.5,41.6,30.2c-1.2,3.3-5.4,4.9-12.5,4.9h0c-9.7,0-24.2-3.2-38.8-8.5c-6.4-2.3-12.5-5-18-7.7
	c2.8,5.5,5.4,11.7,7.7,18c4.4,12.1,7.3,24,8.2,33.4c1,10.3-0.6,16.5-4.6,17.9C625.3,738.3,624.7,738.4,624.1,738.5L624.1,738.5z"/>
<path class="st14" d="M592.7,551.5c6.9,0,12.5,21.4,12.5,47.7c0,12-1.2,23-3.1,31.4c6.3-5.9,15.2-12.4,25.7-18.4
	c16.7-9.7,32.7-15.4,41.3-15.4c3.1,0,5.3,0.8,6.2,2.3c3.5,6-12.3,21.5-35.1,34.7c-7.9,4.5-15.6,8.2-22.4,10.8
	c7.2,1.4,15.4,3.7,23.9,6.8c24.8,9,42.9,21.6,40.6,28.1c-0.9,2.6-4.9,3.8-10.9,3.8c-9.2,0-23.2-2.9-38.2-8.4
	c-8.5-3.1-16.3-6.6-22.7-10.2c3.6,6.4,7.1,14.2,10.2,22.7c9,24.8,11.1,46.7,4.6,49.1c-0.4,0.1-0.8,0.2-1.2,0.2
	c-6.7,0-18.4-17.5-26.9-40.8c-3.1-8.5-5.4-16.8-6.8-23.9c-2.6,6.8-6.3,14.5-10.8,22.4c-12,20.7-25.8,35.5-32.8,35.5
	c-0.7,0-1.3-0.2-1.9-0.5c-6-3.5-0.1-24.7,13-47.6c4.5-7.9,9.4-14.9,14-20.6c-6.9,2.4-15.2,4.5-24.1,6.1c-9.7,1.7-18.9,2.5-26.6,2.5
	c-12.9,0-21.8-2.3-22.6-6.6c-1.2-6.8,18.9-16,44.8-20.6c9-1.6,17.4-2.4,24.8-2.5c-6.3-3.8-13.2-8.7-20.2-14.6
	c-20.2-16.9-33-35-28.5-40.2c0.8-1,2.2-1.5,4-1.5c7.9,0,24.1,8.8,40.5,22.6c7,5.8,13,11.8,17.8,17.4c-1.2-7.2-1.8-15.7-1.8-24.8
	C580.2,572.8,585.8,551.5,592.7,551.5 M592.7,548.1c-5.2,0-9.3,5.6-12.1,16.5c-2.4,9.3-3.8,21.6-3.8,34.6c0,5.1,0.2,10.1,0.6,14.9
	c-3.4-3.4-7.1-6.8-11-10.1c-16.9-14.2-33.7-23.4-42.7-23.4c-3.6,0-5.6,1.5-6.7,2.7c-3.3,4-1.7,10.7,4.9,19.9
	c5.5,7.8,14.1,16.8,24.1,25.1c3.9,3.3,7.9,6.3,11.8,9.1c-4.8,0.4-9.8,1.1-14.8,2c-12.8,2.3-24.7,5.7-33.4,9.7
	c-10.3,4.7-15.1,9.7-14.2,14.8c1.4,7.7,14.9,9.4,25.9,9.4c8.2,0,17.6-0.9,27.2-2.6c5-0.9,9.9-2,14.6-3.2c-2.7,4-5.4,8.2-8,12.6
	c-6.5,11.3-11.5,22.6-14,31.8c-3,10.9-2.2,17.8,2.2,20.4c1.1,0.6,2.3,0.9,3.6,0.9c9.8,0,25-18.7,35.7-37.3c2.5-4.4,4.9-8.9,6.9-13.2
	c1.3,4.6,2.8,9.4,4.5,14.2c7.8,21.4,20.1,43,30.1,43c0.8,0,1.6-0.1,2.4-0.4c4.9-1.8,6.8-8.4,5.8-19.7c-0.9-9.6-3.8-21.6-8.3-33.8
	c-1.7-4.8-3.7-9.4-5.7-13.8c4.4,2,9,3.9,13.8,5.7c15,5.4,29.3,8.6,39.4,8.6c7.9,0,12.7-2,14.1-6c1.8-4.9-2.1-10.6-11.4-17
	c-7.9-5.5-19-10.9-31.2-15.4c-4.8-1.7-9.6-3.3-14.2-4.5c4.4-2,8.8-4.4,13.2-6.9c11.3-6.5,21.3-13.8,28.1-20.6
	c8.1-8,10.8-14.3,8.2-18.8c-1.6-2.7-4.6-4-9.2-4c-9.6,0-26.1,6.1-43,15.8c-6.9,4-13.4,8.3-18.9,12.6c1-7,1.5-14.8,1.5-22.7
	c0-13-1.3-25.3-3.8-34.6C601.9,553.6,597.9,548.1,592.7,548.1L592.7,548.1z"/>
<circle class="st15" cx="590.6" cy="644.1" r="25"/>
<path class="st13" d="M804.5,728.7c-8.7,0-20.9-21.1-28.5-41.9c-2.3-6.4-4.3-12.8-5.7-18.8c-2.5,5.7-5.5,11.6-8.9,17.5
	C749.2,707,735.1,722,727.3,722c-1,0-1.9-0.2-2.8-0.7c-8.1-4.7,0.1-28.6,12.4-49.9c3.4-5.9,7.1-11.5,10.7-16.4
	c-5.9,1.8-12.4,3.3-19.1,4.5c-9.5,1.7-18.8,2.6-26.9,2.6c-8.5,0-23-1-24.3-8c-0.7-4.2,3.8-8.7,13.2-13c8.6-3.9,20.3-7.4,33-9.6
	c6.7-1.2,13.3-2,19.5-2.3c-5.2-3.4-10.5-7.4-15.7-11.8c-9.9-8.3-18.3-17.1-23.8-24.8c-6-8.4-7.7-14.6-4.9-17.8
	c1.2-1.4,3-2.1,5.4-2.1c8.5,0,25.3,9.2,41.6,23c5.2,4.4,10.1,8.9,14.3,13.4c-0.7-6.1-1.1-12.8-1.1-19.6c0-24.6,4.9-49.4,14.2-49.4
	c9.3,0,14.2,24.9,14.2,49.4c0,9.6-0.8,18.9-2.1,26.8c6.2-5.2,13.9-10.5,22.2-15.3c16.7-9.6,32.8-15.6,42.2-15.6
	c3.9,0,6.5,1.1,7.7,3.2c2.1,3.7-0.6,9.5-8,16.7c-6.7,6.6-16.6,13.9-27.7,20.3c-5.9,3.4-11.8,6.4-17.5,8.9c6,1.4,12.4,3.4,18.8,5.7
	c12.1,4.4,23.1,9.8,30.8,15.2c8.5,5.9,12.2,11.1,10.7,15.1c-1.2,3.3-5.4,4.9-12.5,4.9h0c-9.7,0-24.2-3.2-38.8-8.5
	c-6.4-2.3-12.5-5-18-7.7c2.8,5.5,5.4,11.7,7.7,18c8.4,23.1,12.3,48.1,3.6,51.3C805.7,728.6,805.1,728.7,804.5,728.7L804.5,728.7z"/>
<path class="st14" d="M773.1,541.7c6.9,0,12.5,21.4,12.5,47.7c0,12-1.2,23-3.1,31.4c6.3-5.9,15.2-12.4,25.7-18.4
	c16.7-9.7,32.7-15.4,41.3-15.4c3.1,0,5.3,0.8,6.2,2.3c3.5,6-12.3,21.5-35.1,34.7c-7.9,4.5-15.6,8.2-22.4,10.8
	c7.2,1.4,15.4,3.7,23.9,6.8c24.8,9,42.9,21.6,40.6,28.1c-0.9,2.6-4.9,3.8-10.9,3.8c-9.2,0-23.2-2.9-38.2-8.4
	c-8.5-3.1-16.3-6.6-22.7-10.2c3.6,6.4,7.1,14.2,10.2,22.7c9,24.8,11.1,46.7,4.6,49.1c-0.4,0.1-0.8,0.2-1.2,0.2
	c-6.7,0-18.4-17.5-26.9-40.8c-3.1-8.5-5.4-16.8-6.8-23.9c-2.6,6.8-6.3,14.5-10.8,22.4c-12,20.7-25.8,35.5-32.8,35.5
	c-0.7,0-1.3-0.2-1.9-0.5c-6-3.5-0.1-24.7,13-47.6c4.5-7.9,9.4-14.9,14-20.6c-6.9,2.4-15.2,4.5-24.1,6.1c-9.7,1.7-18.9,2.5-26.6,2.5
	c-12.9,0-21.8-2.3-22.6-6.6c-1.2-6.8,18.9-16,44.8-20.6c9-1.6,17.4-2.4,24.8-2.5c-6.3-3.8-13.2-8.7-20.2-14.6
	c-20.2-16.9-33-35-28.5-40.2c0.8-1,2.2-1.5,4-1.5c7.9,0,24.1,8.8,40.5,22.6c7,5.8,13,11.8,17.8,17.4c-1.2-7.2-1.8-15.7-1.8-24.8
	C760.6,563.1,766.2,541.7,773.1,541.7 M773.1,538.3c-5.2,0-9.3,5.6-12.1,16.5c-2.4,9.3-3.8,21.6-3.8,34.6c0,5.1,0.2,10.1,0.6,14.9
	c-3.4-3.4-7.1-6.8-11-10.1c-16.9-14.2-33.7-23.4-42.7-23.4c-3.6,0-5.6,1.5-6.7,2.7c-3.3,4-1.7,10.7,4.9,19.9
	c5.5,7.8,14.1,16.8,24.1,25.1c3.9,3.3,7.9,6.3,11.8,9.1c-4.8,0.4-9.8,1.1-14.8,2c-12.8,2.3-24.7,5.7-33.4,9.7
	c-10.3,4.7-15.1,9.7-14.2,14.8c1.4,7.7,14.9,9.4,25.9,9.4c8.2,0,17.6-0.9,27.2-2.6c5-0.9,9.9-2,14.6-3.2c-2.7,4-5.4,8.2-8,12.6
	c-6.5,11.3-11.5,22.6-14,31.8c-3,10.9-2.2,17.8,2.2,20.4c1.1,0.6,2.3,0.9,3.6,0.9c9.8,0,25-18.7,35.7-37.3c2.5-4.4,4.9-8.9,6.9-13.2
	c1.3,4.6,2.8,9.4,4.5,14.2c7.8,21.4,20.1,43,30.1,43c0.8,0,1.6-0.1,2.4-0.4c4.9-1.8,6.8-8.4,5.8-19.7c-0.9-9.6-3.8-21.6-8.3-33.8
	c-1.7-4.8-3.7-9.4-5.7-13.8c4.4,2,9,3.9,13.8,5.7c15,5.4,29.3,8.6,39.4,8.6c7.9,0,12.7-2,14.1-6c1.8-4.9-2.1-10.6-11.4-17
	c-7.9-5.5-19-10.9-31.2-15.4c-4.8-1.7-9.6-3.3-14.2-4.5c4.4-2,8.8-4.4,13.2-6.9c11.3-6.5,21.3-13.8,28.1-20.6
	c8.1-8,10.8-14.3,8.2-18.8c-1.6-2.7-4.6-4-9.2-4c-9.6,0-26.1,6.1-43,15.8c-6.9,4-13.4,8.3-18.9,12.6c1-7,1.5-14.8,1.5-22.7
	c0-13-1.3-25.3-3.8-34.6C782.4,543.9,778.3,538.3,773.1,538.3L773.1,538.3z"/>
<circle class="st15" cx="771" cy="634.4" r="25"/>
<path class="st13" d="M991,738.5c-8.7,0-20.9-21.1-28.5-41.9c-2.3-6.4-4.3-12.8-5.7-18.8c-2.5,5.7-5.5,11.6-8.9,17.5
	c-12.4,21.4-26.5,36.4-34.3,36.4c-1,0-1.9-0.2-2.8-0.7c-3.7-2.1-4.2-8.5-1.5-18.4c2.5-9.1,7.4-20.3,13.9-31.4
	c3.4-5.9,7-11.5,10.7-16.4c-5.9,1.8-12.4,3.3-19.1,4.5c-9.5,1.7-18.8,2.6-26.9,2.6c-8.5,0-23-1-24.3-8c-1.6-9.2,22-18.3,46.2-22.6
	c6.7-1.2,13.3-2,19.5-2.3c-5.2-3.4-10.5-7.4-15.7-11.8c-9.9-8.3-18.3-17.1-23.8-24.8c-6-8.4-7.7-14.6-4.9-17.8
	c1.2-1.4,3-2.1,5.4-2.1c8.5,0,25.3,9.2,41.6,23c5.2,4.4,10.1,8.9,14.3,13.4c-0.7-6.1-1.1-12.8-1.1-19.6c0-24.6,4.9-49.4,14.2-49.4
	c9.3,0,14.2,24.9,14.2,49.4c0,9.6-0.8,18.9-2.1,26.8c6.2-5.2,13.9-10.5,22.2-15.3c16.7-9.6,32.8-15.6,42.2-15.6
	c3.9,0,6.5,1.1,7.7,3.2c2.1,3.7-0.6,9.5-8,16.7c-6.7,6.6-16.6,13.9-27.7,20.3c-5.9,3.4-11.8,6.4-17.5,8.9c6,1.4,12.4,3.4,18.8,5.7
	c23.1,8.4,44.8,21.5,41.6,30.2c-1.2,3.3-5.4,4.9-12.5,4.9h0c-9.7,0-24.2-3.2-38.8-8.5c-6.4-2.3-12.5-5-18-7.7
	c2.8,5.5,5.4,11.7,7.7,18c4.4,12.1,7.3,24,8.2,33.4c1,10.3-0.6,16.5-4.6,17.9C992.2,738.3,991.6,738.4,991,738.5L991,738.5z"/>
<path class="st14" d="M959.6,551.5c6.9,0,12.5,21.4,12.5,47.7c0,12-1.2,23-3.1,31.4c6.3-5.9,15.2-12.4,25.7-18.4
	c16.7-9.7,32.7-15.4,41.3-15.4c3.1,0,5.3,0.8,6.2,2.3c3.5,6-12.3,21.5-35.1,34.7c-7.9,4.5-15.6,8.2-22.4,10.8
	c7.2,1.4,15.4,3.7,23.9,6.8c24.8,9,42.9,21.6,40.6,28.1c-0.9,2.6-4.9,3.8-10.9,3.8c-9.2,0-23.2-2.9-38.2-8.4
	c-8.5-3.1-16.3-6.6-22.7-10.2c3.6,6.4,7.1,14.2,10.2,22.7c9,24.8,11.1,46.7,4.6,49.1c-0.4,0.1-0.8,0.2-1.2,0.2
	c-6.7,0-18.4-17.5-26.9-40.8c-3.1-8.5-5.4-16.8-6.8-23.9c-2.6,6.8-6.3,14.5-10.8,22.4c-12,20.7-25.8,35.5-32.8,35.5
	c-0.7,0-1.3-0.2-1.9-0.5c-6-3.5-0.1-24.7,13-47.6c4.5-7.9,9.4-14.9,14-20.6c-6.9,2.4-15.2,4.5-24.1,6.1c-9.7,1.7-18.9,2.5-26.6,2.5
	c-12.9,0-21.8-2.3-22.6-6.6c-1.2-6.8,18.9-16,44.8-20.6c9-1.6,17.4-2.4,24.8-2.5c-6.3-3.8-13.2-8.7-20.2-14.6
	c-20.2-16.9-33-35-28.5-40.2c0.8-1,2.2-1.5,4-1.5c7.9,0,24.1,8.8,40.5,22.6c7,5.8,13,11.8,17.8,17.4c-1.2-7.2-1.8-15.7-1.8-24.8
	C947.1,572.8,952.7,551.5,959.6,551.5 M959.6,548.1c-5.2,0-9.3,5.6-12.1,16.5c-2.4,9.3-3.8,21.6-3.8,34.6c0,5.1,0.2,10.1,0.6,14.9
	c-3.4-3.4-7.1-6.8-11-10.1c-16.9-14.2-33.7-23.4-42.7-23.4c-3.6,0-5.6,1.5-6.7,2.7c-3.3,4-1.7,10.7,4.9,19.9
	c5.5,7.8,14.1,16.8,24.1,25.1c3.9,3.3,7.9,6.3,11.8,9.1c-4.8,0.4-9.8,1.1-14.8,2c-12.8,2.3-24.7,5.7-33.4,9.7
	c-10.3,4.7-15.1,9.7-14.2,14.8c1.4,7.7,14.9,9.4,25.9,9.4c8.2,0,17.6-0.9,27.2-2.6c5-0.9,9.9-2,14.6-3.2c-2.7,4-5.4,8.2-8,12.6
	c-6.5,11.3-11.5,22.6-14,31.8c-3,10.9-2.2,17.8,2.2,20.4c1.1,0.6,2.3,0.9,3.6,0.9c9.8,0,25-18.7,35.7-37.3c2.5-4.4,4.9-8.9,6.9-13.2
	c1.3,4.6,2.8,9.4,4.5,14.2c7.8,21.4,20.1,43,30.1,43c0.8,0,1.6-0.1,2.4-0.4c4.9-1.8,6.8-8.4,5.8-19.7c-0.9-9.6-3.8-21.6-8.3-33.8
	c-1.7-4.8-3.7-9.4-5.7-13.8c4.4,2,9,3.9,13.8,5.7c15,5.4,29.3,8.6,39.4,8.6c7.9,0,12.7-2,14.1-6c1.8-4.9-2.1-10.6-11.4-17
	c-7.9-5.5-19-10.9-31.2-15.4c-4.8-1.7-9.6-3.3-14.2-4.5c4.4-2,8.8-4.4,13.2-6.9c11.3-6.5,21.3-13.8,28.1-20.6
	c8.1-8,10.8-14.3,8.2-18.8c-1.6-2.7-4.6-4.1-9.2-4.1c-9.6,0-26.1,6.1-43,15.8c-6.9,4-13.4,8.3-18.9,12.6c1-7,1.5-14.8,1.5-22.7
	c0-13-1.3-25.3-3.8-34.6C968.8,553.6,964.8,548.1,959.6,548.1L959.6,548.1z"/>
<circle class="st15" cx="957.5" cy="644.1" r="25"/>
</svg>
